<svg xmlns="http://www.w3.org/2000/svg" width="66.739" height="60.027" viewBox="0 0 62.567 56.275"><path d="M16.296 54.795C10.571 52.51 4.751 47.132 2.4 41.955c-3.073-6.767-3.089-18.488-.033-25.214C6.526 7.584 19.51-1.105 27.196.127l2.702.433-2.461 3.125c-1.464 1.86-2.147 2.24-1.686.938.958-2.704-2.97-3.1-4.005-.403-.377.98-1.74 1.58-3.028 1.332-1.514-.291-2.633.463-3.163 2.131-.647 2.039-1.05 2.219-1.914.855-.759-1.199-1.1-.507-1.113 2.261-.01 2.194-.523 4.3-1.138 4.68-1.432.885-2.904-2.841-1.817-4.6.488-.79.229-.963-.639-.427-2.827 1.747-6.402 10.649-6.758 16.829-.298 5.168-.065 6.003 1.35 4.83 1.387-1.152 1.652-.726 1.407 2.265-.582 7.113.398 10.272 1.337 4.31.742-4.716 1.038-5.171 1.833-2.813.521 1.547 1.663 2.812 2.538 2.812.874 0 1.955 1.95 2.402 4.331.447 2.383 1.301 4.633 1.898 5.002.596.369.807-.596.468-2.143-.45-2.053-.29-2.353.59-1.11 1.02 1.438 1.303 1.438 1.823 0 .34-.938 1.034.41 1.543 2.997.51 2.585 1.486 5.046 2.17 5.469.747.462.932-.207.465-1.68-.545-1.716-.195-2.449 1.17-2.449 1.145 0 1.673.713 1.282 1.732-.365.952-.147 1.412.485 1.02.632-.39 1.502-.138 1.934.56 2.51 4.063 19.98-2.292 24.888-9.052 1.469-2.022 2.529-5.51 2.564-8.433.073-5.956 1.862-6.747 2.106-.931.128 3.064.306 3.353.722 1.176.303-1.587-.026-4.54-.73-6.562-.865-2.48-.869-3.677-.013-3.677.725 0 .908-1.138.426-2.656-.604-1.904-.414-2.392.67-1.721.833.514.473-.654-.8-2.596-2.167-3.309-2.174-3.478-.1-2.682 1.85.71 2.008.467.962-1.488-2.21-4.129-8.747-8.735-13.531-9.534-2.558-.428-6.057-1.298-7.776-1.934-2.344-.868-1.363-1.025 3.922-.628 13.831 1.04 21.21 8.6 22.104 22.649.432 6.788.025 8.742-2.964 14.235-6.186 11.365-17.264 17.581-31.187 17.499-4.813-.029-10.14-.607-11.838-1.284zM10.863 42.2c-.4-.997-.695-.701-.755.755-.055 1.318.24 2.056.656 1.64.415-.415.46-1.493.099-2.395zm9.22-9.391C10.305 26.121 3.452 18.59 6.278 17.64c.687-.23 4.119 2.16 7.626 5.313 3.506 3.153 7.158 5.732 8.115 5.732.957 0 1.74.545 1.74 1.211s-.985.88-2.188.476c-1.203-.404-.034.789 2.598 2.65 2.631 1.862 5.079 3.091 5.439 2.731.36-.36-2.011-3.503-5.269-6.986-6.123-6.546-6.462-7.786-1.183-4.327 4.63 3.033 11.41 15.495 8.431 15.495-.6 0-5.776-3.206-11.504-7.125zm17.62-3.846c-1.611-2.56-7.095-7.982-12.187-12.05-5.091-4.067-9.257-7.933-9.257-8.59 0-1.319.07-1.275 9.375 5.948l6.25 4.851-4.375-4.782c-2.406-2.63-3.813-4.49-3.125-4.134.687.356 3.35 1.625 5.918 2.82 5.338 2.487 9.695 8.757 10.985 15.81 1.106 6.052.168 6.085-3.583.127zm-.082-6.319c-.674-1.26-2.208-3.088-3.409-4.062-1.904-1.546-2.048-1.533-1.128.102 1.291 2.295 4.637 6.25 5.288 6.25.261 0-.077-1.03-.75-2.29zm8.98-6.042c-5.878-6.027-5.255-7.287 1-2.023 3.469 2.919 3.835 3.022 2.612.737-.782-1.462-3.498-3.94-6.035-5.509-2.573-1.59-3.917-3.082-3.04-3.374 2.343-.781 10.416 6.262 11.744 10.246 1.907 5.72-.658 5.688-6.281-.077z" fill="#f5f3f1"/><path d="M16.884 54.677C6.334 50.99.009 41.554.009 29.501c0-8.387 1.966-13.697 7.334-19.811C11.666 4.766 22.328-.425 26.89.174c2.758.361 2.822.547.99 2.886-1.759 2.246-1.875 2.264-1.15.174.646-1.861.366-2.144-1.394-1.414-1.211.502-2.852.94-3.645.973-.794.032-1.165.787-.823 1.676.417 1.086-.238 1.452-1.994 1.113-1.439-.277-2.615.027-2.615.675s-.656 1.038-1.457.866C14 6.95 12.94 8.667 12.447 10.936c-.494 2.27-1.315 4.52-1.824 5-.508.481-.55-.344-.094-1.833 1.273-4.146-1.281-4.62-4.01-.745-3.066 4.353-4.122 7.75-4.597 14.802-.329 4.878-.135 5.393 1.517 4.022 1.645-1.365 1.785-1.07 1.06 2.229-.46 2.09-.287 5.173.383 6.85C6 44.059 6.121 43.898 6.35 39.311c.15-3.028.463-3.891.791-2.188.298 1.547 1.065 2.812 1.705 2.812.64 0 1.23 1.266 1.31 2.813.12 2.274.331 2.094 1.103-.938.892-3.505.967-3.545 1.146-.625.106 1.72.941 4.476 1.856 6.127l1.663 3.002 1.319-3.627c.728-2.003 1.363-2.684 1.417-1.52.054 1.158.704 3.69 1.443 5.624l1.344 3.52 1.498-2.785c1.473-2.74 1.522-2.746 3.041-.313 2.585 4.14 11.408 2.847 21.223-3.11 4.58-2.779 7.695-9.608 8.139-17.849.279-5.174 1.434-6.9 2.515-3.756.295.86.4.719.233-.313-.167-1.03-.744-2.951-1.283-4.267-.767-1.875-.595-2.156.796-1.299 1.175.725.983-.116-.568-2.488-2.07-3.165-2.1-3.489-.251-2.78 1.954.75 1.954.57.01-2.722-2.778-4.701-5.858-6.524-15.541-9.195l-8.125-2.24 7.36.652c8.956.793 13.505 3.32 17.89 9.933 12.64 19.063-5.044 44.661-30.61 44.308-3.927-.055-8.828-.689-10.89-1.41zm-3.944-6.67c-.407-1.061-1.008-1.661-1.336-1.334-.327.328-.225 1.196.228 1.93 1.233 1.993 1.953 1.606 1.108-.597zm44.18-16.51c-.314-1.202-.571-.218-.571 2.188 0 2.407.257 3.391.572 2.188.314-1.203.314-3.172 0-4.375zm-42.012 13.96c.06-1.457.356-1.753.755-.756.36.902.316 1.98-.099 2.396-.415.415-.71-.323-.656-1.64zm7.387-11.086c-4.46-3.06-9.306-6.576-10.767-7.812-3.37-2.852-7.382-9.124-5.838-9.124 2.223 0 11.634 8.965 10.81 10.298-.484.783-.24.975.59.463 1.726-1.067 6.799 1.444 5.89 2.915-.604.977 4.487 5.074 6.304 5.074 1.49 0-3.441-6.829-7.422-10.279-2.16-1.872-3.297-3.419-2.525-3.437 1.626-.039 11.722 10.586 11.722 12.336 0 .647.341 2.066.759 3.153 1.204 3.138-.842 2.367-9.523-3.587zM38.3 29.454c-1.273-2.363-6.73-7.837-12.127-12.166-5.397-4.328-9.556-8.127-9.242-8.44.313-.314 4.01 2.1 8.215 5.366 4.204 3.265 7.226 5.185 6.714 4.266-.511-.918.809.3 2.934 2.705 2.125 2.407 3.887 3.732 3.915 2.945.074-2.084-7.181-9.508-8.497-8.694-.615.38-2.163-.562-3.44-2.093-1.276-1.53-1.564-2.123-.64-1.318.926.806 2.369 1.202 3.207.88 2.368-.909 10.434 8.871 11.352 13.764 1.217 6.49.226 7.646-2.391 2.785zm8.899-12.388c-5.578-6.01-5.395-7.365.342-2.538 3.624 3.05 3.926 3.13 2.626.7-.808-1.51-3.555-4.162-6.104-5.894-5.482-3.725-3.983-4.24 1.9-.653 4.491 2.738 9.008 10.604 7.097 12.357-.69.633-3.11-1.006-5.861-3.972z" fill="#f3f0ee"/><path d="M14.152 53.143C5.557 49.14.969 42.36.264 32.62c-.681-9.424 1.286-16.114 6.547-22.26C11.506 4.874 22.03-.464 26.89.174c2.758.361 2.822.547.99 2.886-1.578 2.016-1.811 2.077-1.204.313 1.036-3.004-1.11-2.745-4.384.53-1.871 1.87-2.475 2.085-1.939.688.547-1.425.242-1.822-1.026-1.336-.992.38-1.436 1.336-.986 2.124.45.787.362 1.018-.196.513s-1.814.058-2.793 1.25c-.978 1.193-1.369 1.378-.868.413.6-1.155.417-1.45-.532-.864-.794.49-1.452 2.124-1.462 3.63-.01 1.507-.61 3.583-1.332 4.614-1.04 1.484-1.155 1.31-.555-.832 1.162-4.152-1.36-4.612-4.085-.745-3.065 4.353-4.12 7.75-4.596 14.802-.291 4.317-.026 5.302 1.162 4.317 1.182-.981 1.511.011 1.42 4.277-.066 3.055.456 6.131 1.16 6.836.873.873 1.2-.397 1.027-4-.138-2.904.028-4.014.37-2.467.342 1.547 1.145 2.812 1.785 2.812.64 0 1.23 1.266 1.31 2.813.12 2.274.331 2.094 1.103-.938.892-3.505.967-3.545 1.146-.625.106 1.72.941 4.476 1.856 6.127l1.663 3.002 1.319-3.627c.728-2.003 1.363-2.684 1.417-1.52.054 1.158.704 3.69 1.443 5.624l1.344 3.52 1.498-2.785c1.473-2.74 1.522-2.746 3.041-.313 2.585 4.14 11.408 2.847 21.223-3.11 3.722-2.258 6.195-6.724 8.33-15.043.353-1.375.423-.25.156 2.5-.426 4.402-.32 4.653.898 2.094.985-2.072 1.006-4.317.073-7.813-.72-2.698-.891-4.906-.38-4.906 1.254 0 .832-6.43-.568-8.65-.853-1.352-.61-1.579 1.022-.953 1.98.76 1.973.533-.107-3.023-2.78-4.754-5.08-6.066-15.374-8.77-5.292-1.39-6.902-2.172-4.616-2.244C51.179.84 62.546 11.63 62.48 25.823c-.037 8.128-3.463 15.072-10.487 21.254-10.708 9.426-25.525 11.8-37.842 6.066zm12.107-.01c0-.302-.563-.898-1.25-1.323-.688-.425-1.25-.177-1.25.551s.562 1.324 1.25 1.324c.687 0 1.25-.248 1.25-.551zM12.94 48.007c-.407-1.06-1.008-1.66-1.336-1.333-.327.328-.225 1.196.228 1.929 1.233 1.994 1.953 1.607 1.108-.596zm45.423-22.055c-.4-.997-.695-.701-.755.755-.055 1.318.24 2.056.656 1.64.415-.415.46-1.493.099-2.395zm.625-5.037c-.897-.897-1.48-.97-1.48-.187 0 1.668 1.48 3.147 2.313 2.312.356-.355-.02-1.311-.833-2.125zm-43.88 24.542c.06-1.456.356-1.752.755-.755.36.902.316 1.98-.099 2.396-.415.415-.71-.323-.656-1.641zm7.4-11.095C13.333 28.153 5.755 20.82 6.432 18.801c.25-.742 2.984.934 6.078 3.726 3.094 2.792 4.835 4.67 3.87 4.174-1.125-.577-1.448-.402-.898.486.472.764 1.56 1.12 2.416.791.857-.329 2.667.26 4.023 1.308 2.446 1.891 2.446 1.9-.036 1.078-3.199-1.058-2.333-.1 3.47 3.837 2.56 1.737 4.651 2.754 4.647 2.259-.017-1.784-4.853-8.197-8.323-11.035-1.95-1.595-2.913-2.92-2.14-2.945 2.622-.084 11.72 11.018 11.72 14.302 0 1.734-.14 3.136-.312 3.114-.172-.02-3.968-2.512-8.437-5.535zm16.423-4.086c-1.356-3.212-13.204-14.287-20.686-19.334-.709-.479-.989-1.17-.622-1.537s2.6.986 4.964 3.006c5.044 4.312 7.599 4.96 4.178 1.06-1.457-1.66-1.653-2.28-.506-1.597 1.031.614 2.646 1.234 3.59 1.376 5.25.794 12.082 11.925 11.187 18.227-.364 2.568-.562 2.455-2.105-1.2zm.195-5.027c-1.435-3.9-4.225-7.596-7.211-9.553-4.701-3.08-3.236.71 2.527 6.537 5.819 5.882 5.713 5.814 4.684 3.016zm-8.027-7.5c-1.554-1.983-1.51-2.027.472-.472 1.203.943 2.188 1.928 2.188 2.187 0 1.029-1.027.367-2.66-1.715zm15.795-1.38l-4.99-5.808 4.81 3.602c4.116 3.083 4.605 3.221 3.395.961-.777-1.452-3.498-4.057-6.047-5.789-2.548-1.732-4.024-3.149-3.278-3.149 2.858 0 9.745 5.795 11.233 9.451 2.676 6.578.203 6.931-5.123.732z" fill="#f1edea"/><path d="M13.92 52.907C5.434 48.677 1.031 42.25.261 32.964c-.724-8.731 1.483-16.532 6.347-22.432C10.968 5.242 21.282-.088 26.884.055l3.75.095-3.75 1.21c-4.172 1.348-6.99 2.086-8.511 2.23-.557.052-.655.672-.22 1.376.435.705.328 1.2-.239 1.102-2.52-.438-4.24.22-3.539 1.353.43.695-.044.926-1.085.526-1.4-.537-1.693 0-1.207 2.202.488 2.212.34 2.48-.62 1.117C8.355 6.85 2.447 17.4 1.819 28.488c-.342 6.024-.201 6.452 1.434 4.375 1.657-2.106 1.758-1.929 1.174 2.072-.353 2.42.118 6.05 1.056 8.125 1.671 3.698 1.69 3.664 1.307-2.5-.212-3.437-.084-4.843.286-3.125.37 1.72 1.23 3.804 1.91 4.633.681.83.98 1.954.665 2.5-.315.546.553 2.117 1.93 3.492l2.502 2.5-1.412-2.73c-.777-1.502-1.387-4.033-1.357-5.625.04-2.168.483-1.694 1.76 1.886 2.276 6.383 2.9 6.79 3.956 2.581l.893-3.558 1.39 4.973c1.047 3.744 2.112 5.077 4.307 5.39 1.878.27 2.614-.071 2.066-.957-.467-.756-1.46-.998-2.207-.537-.835.517-.995.253-.414-.686.709-1.147 1.523-.999 3.29.6 2.961 2.68 10.034 1.908 18.042-1.968 5.91-2.861 8.48-6.41 10.604-14.64l1.22-4.729-.532 4.716c-.311 2.758-.044 4.414.644 3.989 1.544-.955 1.501-7.007-.081-11.436-1.209-3.382-1.178-3.421.78-1.019 1.992 2.443 2.02 2.428 1.162-.625-1.4-4.985-1.626-10-.452-10 1.89 0-2.643-7.36-5.559-9.025-1.54-.88-6.455-2.521-10.924-3.648-5.765-1.453-7.036-2.086-4.375-2.18C50.983.834 62.545 11.896 62.48 25.823c-.037 8.128-3.463 15.071-10.487 21.254-10.905 9.6-25.902 11.895-38.074 5.83zm45.068-31.992c-.897-.897-1.48-.971-1.48-.188 0 1.668 1.48 3.147 2.313 2.313.356-.356-.02-1.312-.833-2.125zM23.134 34.683C14.269 28.811 6.259 21.361 6.259 18.988c0-.943 3.09.828 6.99 4.004 3.844 3.131 7.64 5.702 8.437 5.712.963.013.905.364-.171 1.047-1.166.74-.204 1.964 3.437 4.373 2.781 1.84 5.057 3.03 5.057 2.642 0-2.17-4.248-8.317-7.788-11.269-2.485-2.072-2.875-2.676-.993-1.54 4.676 2.822 10.296 10.372 9.824 13.196-.384 2.292-1.038 2.088-7.918-2.47zm-3.23-5.101a205.438 205.438 0 0 1-3.02-2.188c-2.313-1.696-2.371-1.67-.785.354.944 1.203 2.303 2.187 3.021 2.187s1.071-.159.785-.353zm18.955.595c-.897-2.166-5.456-7.067-10.13-10.892-9.507-7.777-14.246-12.81-7.82-8.305 2.213 1.552 4.356 3.358 4.76 4.014.406.655 1.354 1.191 2.107 1.191.754 0 .299-1.265-1.01-2.812-2.362-2.789-2.36-2.795.118-.788 1.375 1.113 3.126 1.795 3.891 1.515 2.213-.81 9.031 7.858 9.924 12.617 1.15 6.134.092 8.125-1.84 3.46zm-.29-6.5c-1.45-4.157-6.931-9.123-8.798-7.97-.865.535 7.723 10.654 9.86 11.617.136.061-.342-1.58-1.062-3.646zm-7.47-5.93c-1.554-1.982-1.51-2.026.472-.471 1.203.943 2.188 1.928 2.188 2.187 0 1.03-1.027.367-2.66-1.715zm15.785-1.541l-5-5.605 4.855 3.609c2.671 1.985 4.596 2.82 4.277 1.855-.318-.965-2.969-3.583-5.89-5.817-6.274-4.799-5.233-5.446 1.453-.903 4.43 3.01 6.648 7.194 5.728 10.804-.255 1-2.411-.567-5.423-3.943z" fill="#eee8e6"/><path d="M13.63 52.704l-6.663-3.481-.257-7.456-.257-7.457 1.284 5.625c.707 3.094 1.696 5.907 2.198 6.25.502.344 1.61 1.75 2.463 3.125 1.55 2.5 1.55 2.5.653 0-.492-1.375-1.117-4.187-1.387-6.25-.421-3.22-.222-3.043 1.408 1.25 1.045 2.75 1.908 5.174 1.918 5.387.01.212.581.038 1.269-.387.687-.425 1.293-2.005 1.346-3.51.06-1.736.647-.907 1.599 2.26 1.308 4.351 2.066 5.086 5.841 5.661 10.312 1.572 24.244-4.113 27.732-11.316 1.036-2.138 2.384-3.87 2.995-3.85.612.023 1.045-2.893.964-6.477-.145-6.42-.123-6.462 1.506-2.768 2.298 5.21 2.198 1.577-.108-3.943-1.667-3.99-1.667-4.315 0-2.932 2.487 2.064 2.372.691-.291-3.481-2.055-3.22-2.055-3.305 0-1.678 2.865 2.27 2.738.755-.356-4.251-3.389-5.484-7.276-7.827-16.56-9.982l-7.793-1.81 6.758.67c10.72 1.063 16.839 5.374 20.682 14.572 4.41 10.555 1.204 21.99-8.58 30.602-11.06 9.736-26.237 11.962-38.363 5.627zm-9.148-7.456C2.158 42.939.01 35.34.022 29.47c.014-8.19 4.533-18.109 10.231-22.455C15.807 2.78 22.798-.096 27.156.061c2.978.107 2.785.288-1.343 1.258C16.862 3.422 7.679 9.914 4.182 16.611c-1.02 1.953-2.06 7.016-2.31 11.25-.42 7.088-.305 7.5 1.431 5.2 1.765-2.34 1.833-2.207 1.057 2.055-.494 2.71-.236 5.665.636 7.295 1.497 2.798 1.185 4.525-.514 2.837zm18.182-10.992c-9.738-6.58-16.417-12.904-16.371-15.503.022-1.277 1.43-.442 4.105 2.432 2.24 2.407 4.334 4.464 4.654 4.572 4.114 1.392 7.263 3.526 6.186 4.191-.774.479.8 2.248 3.714 4.176 2.781 1.84 5.057 3.03 5.057 2.642 0-2.195-4.256-8.314-7.788-11.197-2.248-1.835-2.882-2.741-1.41-2.013C25.9 26.07 33.252 37.267 31.097 39.22c-.254.231-4.049-2.003-8.432-4.965zm-2.76-4.674a205.438 205.438 0 0 1-3.02-2.188c-2.313-1.696-2.371-1.67-.785.354.944 1.203 2.303 2.187 3.021 2.187s1.071-.159.785-.353zm-7.395-5.119c0-.26-.985-1.244-2.188-2.187-1.982-1.555-2.026-1.51-.472.472 1.633 2.082 2.66 2.744 2.66 1.715zm42.744 9.847c.025-2.062.305-2.755.622-1.538.317 1.216.296 2.903-.046 3.75-.343.846-.602-.15-.576-2.212zm-16.276-4.334c-.903-2.04-6.103-7.4-11.555-11.911-10.02-8.29-14.038-12.857-5.046-5.735 5.722 4.532 7.752 5.014 4.39 1.043-2.362-2.789-2.36-2.795.118-.788 1.375 1.113 3.095 1.805 3.822 1.538.727-.267 2.696 1.072 4.375 2.976l3.053 3.461-3.454-3.046c-2.851-2.514-3.724-2.755-5-1.379-.934 1.007-.984 1.353-.125.872.781-.437 2.116.043 2.965 1.067.85 1.024 1.22 1.861.824 1.861-.397 0 .8 1.538 2.66 3.418 1.859 1.879 3.802 3.285 4.317 3.125.516-.161.938 1.395.938 3.457 0 4.663-.234 4.667-2.282.04zm-.763-7.174c-.678-1.782-.535-1.925.7-.7.854.848 1.238 1.857.853 2.241-.384.385-1.083-.308-1.553-1.541zm8.67-6.596l-5-5.605 4.687 3.48c6.4 4.753 5.938 2.143-.625-3.53-4.971-4.296-5.042-4.443-1.102-2.29 5.182 2.83 7.976 6.831 7.443 10.656-.375 2.688-.758 2.496-5.403-2.711z" fill="#ebe5e2"/><path d="M13.852 52.851L7.07 49.277l-.281-6.858c-.276-6.716-.257-6.756.879-1.911.638 2.721 1.614 5.252 2.17 5.625.555.372 1.707 1.802 2.56 3.177 1.55 2.5 1.55 2.5.743 0-.444-1.375-1.075-4.187-1.402-6.25-.512-3.227-.341-3.083 1.222 1.03 2.185 5.748 3.057 6.774 3.794 4.462 1.585-4.968 1.814-5.244 1.905-2.293.186 6.03 2.821 7.952 10.597 7.729 3.871-.111 9.467-1.276 12.435-2.59 6.265-2.77 13.1-8.99 12.35-11.24-.285-.853.238-1.393 1.162-1.2 1.25.262 1.663-1.39 1.613-6.46-.064-6.572-.011-6.682 1.506-3.125.865 2.028 1.598 2.966 1.63 2.085.03-.882-.788-3.623-1.82-6.091-1.666-3.99-1.666-4.315 0-2.932 2.515 2.087 2.378.036-.252-3.784-2.004-2.91-2.004-2.99 0-1.375 3.288 2.651 2.522-.171-1.586-5.842-2.577-3.557-5.16-5.526-8.437-6.43-13.98-3.858-13.929-3.837-7.24-3.055C50.84 3.144 56.822 7.498 60.573 16.475c7.61 18.211-8.012 37.944-31.19 39.4-7.8.49-9.486.162-15.532-3.024zM2.56 41.059c-6.845-15.086.505-32.51 16.54-39.21C21.617.796 25.242-.027 27.155.019c2.675.066 2.124.45-2.39 1.665-3.227.869-6.743 2.306-7.812 3.193-1.07.888-1.945 1.154-1.945.591 0-1.735-8.852 7.38-10.822 11.143-1.023 1.953-2.064 7.016-2.315 11.25-.403 6.823-.257 7.431 1.29 5.343 1.581-2.136 1.678-1.948 1.035 2.016-.393 2.42-.046 5.613.777 7.151.818 1.528 1.17 3.095.783 3.483-.387.387-1.826-1.77-3.198-4.795zm20.105-6.803C13.087 27.785 6.259 21.37 6.259 18.847c0-1.349.828-1.07 3.07 1.036 1.688 1.586 2.953 3.513 2.812 4.28-.141.769.587 1.443 1.618 1.5 3.265.178 8.9 3.407 7.479 4.285-.774.479.8 2.248 3.714 4.176 2.781 1.84 5.057 3.03 5.057 2.642 0-2.195-4.256-8.314-7.788-11.197-2.248-1.835-2.882-2.741-1.41-2.013C25.9 26.07 33.252 37.267 31.097 39.22c-.254.231-4.049-2.003-8.432-4.965zm-2.76-4.674a205.438 205.438 0 0 1-3.02-2.188c-2.313-1.696-2.371-1.67-.785.354.944 1.203 2.303 2.187 3.021 2.187s1.071-.159.785-.353zm35.302 5.353c0-1.718.284-2.422.63-1.562.347.86.347 2.265 0 3.125-.346.86-.63.156-.63-1.563zm-16.513-5.748c-.956-1.787-6.114-6.898-11.461-11.358-5.348-4.46-9.723-8.41-9.723-8.777 0-.367 2.485 1.369 5.523 3.858 6.553 5.37 8.615 5.886 4.382 1.097-2.048-2.318-2.22-2.776-.53-1.413 1.375 1.108 3.095 1.796 3.822 1.53.727-.268 2.696 1.071 4.375 2.975l3.053 3.461-3.206-2.812c-3.972-3.485-6.114-3.705-3.044-.313 1.244 1.375 1.812 2.5 1.261 2.5-.55 0 .628 1.533 2.619 3.407 1.99 1.874 4.042 3.28 4.557 3.125.516-.155.938 1.125.938 2.843 0 3.939-.403 3.92-2.566-.123zm8.816-12.3c-4.117-4.632-3.305-5.123 1.562-.943 1.234 1.06 2.188 1.291 2.188.532 0-.74-2.39-3.438-5.313-5.995C41 6.153 40.924 5.996 44.844 8.197c5.201 2.92 7.974 6.913 7.443 10.72-.381 2.737-.64 2.627-4.778-2.03z" fill="#e8e1dd"/><path d="M17.055 54.43C-6.709 45.583-4.954 10.516 19.694 1.72 22.274.8 25.509.052 26.884.058c1.375.007-.81 1.07-4.854 2.362-7.72 2.465-14.561 7.92-17.878 14.258-1.042 1.99-2.124 7.333-2.407 11.875-.48 7.72-.394 8.054 1.315 5.132 1.805-3.086 1.82-3.07 1.13 1.383-.46 2.961-.006 5.748 1.322 8.125l2.022 3.617-.606-5-.606-5L7.6 41.185c.703 2.407 2.428 5.782 3.835 7.5 1.833 2.24 2.346 2.473 1.81.822-.41-1.267-1.052-3.799-1.427-5.625-.583-2.841-.408-2.727 1.216.79 1.043 2.263 2.751 4.967 3.795 6.01 1.697 1.698 1.833 1.46 1.293-2.237l-.604-4.135 1.297 4.122c1.53 4.864 4.636 6.297 12.273 5.66 7.825-.652 15.666-4.445 21.622-10.46 4.894-4.944 5.075-5.41 4.508-11.611-.574-6.292-.545-6.363 1.132-2.71l1.721 3.75-.79-4.22c-.546-2.923-.365-3.957.591-3.366 1.662 1.027-.403-4.985-2.747-7.999-1.305-1.677-1.218-1.702.697-.2 3.331 2.612 2.617-.124-1.526-5.842-2.577-3.557-5.16-5.526-8.437-6.43-13.98-3.858-13.929-3.837-7.24-3.055C50.84 3.144 56.822 7.498 60.573 16.475c7.511 17.976-8.076 38.014-30.565 39.292-5.087.289-9.93-.21-12.954-1.336zm5.454-20.292c-10.13-7.123-16.25-12.883-16.25-15.29 0-1.35.828-1.07 3.07 1.035 1.688 1.586 2.953 3.513 2.812 4.28-.141.769.587 1.412 1.618 1.43 2.836.05 5.142 1.852 4.239 3.313-.518.837.25.999 2.167.456 1.921-.544 2.397-.442 1.35.288-1.2.836-.335 1.978 3.347 4.415 3.446 2.28 5.155 2.821 5.583 1.766.34-.836.66-.255.715 1.292.054 1.547-.042 2.794-.214 2.77-.172-.022-3.968-2.612-8.437-5.755zm1.445-6.342c-5.354-5.574-4.847-6.23.857-1.112 2.461 2.208 6.082 7.264 4.93 6.884-.197-.065-2.8-2.662-5.787-5.772zm14.801 1.508c-.99-1.851-6.176-7.015-11.523-11.475-5.348-4.46-9.723-8.41-9.723-8.777 0-.367 2.485 1.369 5.523 3.858 6.553 5.37 8.615 5.886 4.382 1.097-2.048-2.318-2.22-2.776-.53-1.413 1.375 1.108 3.095 1.796 3.822 1.53.727-.268 2.696 1.071 4.375 2.975l3.053 3.461-3.206-2.812c-3.972-3.485-6.114-3.705-3.044-.313 1.244 1.375 1.78 2.5 1.19 2.5-.59 0 1.074 2.199 3.698 4.886 2.624 2.687 4.55 5.552 4.278 6.367-.272.814-1.304-.034-2.295-1.884zm18.21-6.502c-.68-1.782-.536-1.925.699-.7.854.848 1.238 1.857.853 2.241-.384.385-1.083-.308-1.553-1.541zm-9.456-5.915c-4.117-4.632-3.305-5.123 1.562-.943 1.234 1.06 2.188 1.291 2.188.532 0-.74-2.39-3.438-5.313-5.995C41 6.153 40.924 5.996 44.844 8.197c5.201 2.92 7.974 6.913 7.443 10.72-.381 2.737-.64 2.627-4.778-2.03z" fill="#e5ddd9"/><path d="M17.04 54.425C6.61 50.543-.62 39.368.332 28.6c.474-5.353.498-5.308.728 1.335.17 4.957.575 6.352 1.449 5 .908-1.404 1.216-.758 1.23 2.574.011 2.447.846 5.54 1.855 6.875 1.811 2.394 1.837 2.393 1.924-.074.067-1.883.509-1.535 1.791 1.413 1.843 4.233 5.54 7.604 4.032 3.676-.464-1.208-1.16-3.69-1.548-5.517-.473-2.231.101-1.629 1.75 1.837 2.534 5.322 5.216 8.049 5.216 5.301 0-.86.799-.47 1.775.864 2.374 3.245 13.24 3.017 21.06-.442 6.408-2.834 13.86-9.346 12.461-10.89-.506-.56-.277-.65.51-.2 1.757 1.005 2.938-1.816 2.963-7.081.015-3.017.308-3.514 1.23-2.086 2.088 3.23 1.53-2.052-.7-6.624l-1.95-4 2.596 3.124L61.3 26.81l-1.343-3.709c-.738-2.04-2.013-4.57-2.833-5.625-1.305-1.677-1.218-1.702.697-.2 3.331 2.612 2.617-.124-1.526-5.842-2.577-3.557-5.16-5.526-8.437-6.43l-9.1-2.51c-3.853-1.063-3.63-1.119 1.876-.47 10.315 1.215 16.188 5.471 19.94 14.45 7.41 17.735-8.321 38.038-30.44 39.288-5.21.295-10.035-.198-13.094-1.337zm.568-7.719c.06-1.456.356-1.752.755-.755.36.902.316 1.98-.099 2.396-.415.415-.71-.323-.656-1.64zm2.326-14.583C10.806 25.539 5.09 19.437 6.62 17.907c.45-.45 1.339.548 1.974 2.219 1.358 3.572 4.147 6.113 7.29 6.64 1.238.207 2.086 1.074 1.886 1.926-.224.957.399 1.258 1.628.786 1.095-.42 1.69-.277 1.321.32-.368.595 1.531 2.538 4.22 4.318 3.4 2.25 5.077 2.772 5.506 1.715.348-.859.66-.569.715.667.15 3.33-1.355 2.743-11.226-4.375zm5.158-3.773c-3.56-4.387-3.7-4.756-.823-2.165 2.99 2.694 6.54 7.545 5.471 7.478-.196-.013-2.288-2.403-4.648-5.313zm14.372 1.952c-.678-1.782-.535-1.925.7-.7.854.848 1.238 1.857.853 2.241-.384.385-1.083-.308-1.553-1.541zm-10.08-10.498C18.71 10.67 14.732 6.5 22.719 12.818c5.848 4.627 8.767 6.028 6.257 3.004-2.76-3.325 3.244-1.982 6.21 1.389l2.948 3.35-3.206-2.813c-3.972-3.485-6.114-3.705-3.044-.313 1.244 1.375 1.789 2.5 1.21 2.5-.58 0 .564 1.688 2.54 3.75 5.4 5.637 3.47 4.439-6.25-3.88zM1.259 21.05c0-1.031 1.644-4.467 3.653-7.635C9.048 6.893 16.877 1.748 24.384.62c4.367-.656 4.12-.457-1.96 1.576C12.929 5.372 8.06 9.276 4.375 16.672c-1.714 3.44-3.116 5.41-3.116 4.378zm46.25-4.163c-4.117-4.632-3.305-5.123 1.562-.943 1.234 1.06 2.188 1.291 2.188.532 0-.74-2.39-3.438-5.313-5.995-4.753-4.16-4.88-4.4-1.196-2.296 5.035 2.878 8.041 7.227 7.522 10.885-.356 2.513-.752 2.331-4.763-2.183z" fill="#e2d9d5"/><path d="M16.908 54.264C6.394 50.254-.622 39.392.332 28.6c.474-5.353.498-5.308.728 1.335.17 4.957.575 6.352 1.449 5 .917-1.418 1.216-.866 1.23 2.27.026 5.48 2.348 10.014 3.885 7.587.895-1.413 1.1-1.365 1.116.262.01 1.097 1.048 2.925 2.305 4.063 2.6 2.353 5.258 2.863 2.964.568-.825-.825-1.5-2.026-1.5-2.668 0-.643 1.203.36 2.673 2.23 2.054 2.61 2.92 3.012 3.731 1.731.825-1.301 1.062-1.216 1.077.386.025 2.736 2.201 3.425 9.53 3.02 13.73-.76 27.897-11.098 28.077-20.488.073-3.828.281-4.173 1.26-2.086.971 2.074 1.093 1.862.713-1.25-.252-2.062-.894-4.875-1.428-6.25-.97-2.5-.97-2.5 1.034 0 2.904 3.624 2.523.738-.573-4.34-1.863-3.057-2.047-3.844-.62-2.66 2.327 1.931 2.596 1.026.732-2.457-.712-1.33-.964-2.418-.561-2.418 1.494 0 4.354 8.825 4.343 13.398-.017 6.372-4.931 16.527-10.122 20.914-9.56 8.08-25.266 11.408-35.467 7.517zm-5.55-11.308c.06-1.456.356-1.752.755-.755.36.902.316 1.98-.099 2.396-.415.415-.71-.323-.656-1.64zm9.641-10.004C12.547 27.251 6.255 20.985 6.264 18.277c.003-.807 1.036.22 2.297 2.283 3.041 4.974 5.998 7.3 7.836 6.165.938-.58 1.17-.396.622.491-1.212 1.962 12.03 10.45 13.283 8.514.584-.902.926-.622.938.768.027 3.098-.833 2.8-10.241-3.546zm18.465-2.65c-.678-1.782-.535-1.925.7-.7.854.848 1.238 1.857.853 2.241-.384.385-1.083-.308-1.553-1.541zm-14.55-2.554l-3.03-3.438 3.437 3.03c3.213 2.833 4.011 3.845 3.03 3.845-.223 0-1.77-1.547-3.437-3.437zm6.297-6.924c-3.808-3.582-5.74-5.53-4.295-4.326 1.446 1.203 3.083 2.187 3.639 2.187.555 0 .238-.984-.706-2.187-1.56-1.99-1.514-2.03.503-.447 1.22.957 1.913 2.045 1.54 2.418-.372.372 1.13 2.542 3.34 4.822 6.1 6.292 3.77 4.864-4.021-2.467zm-29.952.404c0-3.035 5.907-11.845 9.924-14.802C15.391 3.329 24.041-.107 27.353.003c1.117.037-1.101 1.069-4.93 2.294-9.421 3.015-14.338 6.93-18.048 14.375-1.714 3.44-3.116 5.49-3.116 4.556zm50.17.418c-.094-.778-1.998-3.26-4.233-5.518l-4.062-4.104 4.062 2.79c4.966 3.412 5.25 2.148.625-2.78-2.79-2.972-2.922-3.349-.7-2.002 3.655 2.217 5.738 6.357 5.044 10.03-.31 1.649-.642 2.362-.736 1.584zM33.6 16.498c-1.554-1.983-1.51-2.027.472-.472 2.083 1.633 2.745 2.66 1.716 2.66-.26 0-1.244-.985-2.188-2.188zm-13.75-5c-1.554-1.983-1.51-2.027.472-.472 2.083 1.633 2.745 2.66 1.716 2.66-.26 0-1.244-.985-2.188-2.188zm35.722-1.664c-.46-.743-2.602-2.429-4.761-3.745-2.16-1.317-3.232-2.396-2.383-2.399 1.6-.005 10.372 7.394 8.843 7.459-.475.02-1.24-.572-1.699-1.315zM42.196 2.857c.86-.346 2.266-.346 3.125 0 .86.347.157.631-1.562.631s-2.422-.284-1.563-.63zm-6.25-1.25c.86-.346 2.266-.346 3.125 0 .86.347.157.631-1.562.631s-2.422-.284-1.563-.63z" fill="#dcd1cc"/><path d="M18.42 54.527C8.885 51.56-.317 41.173 2.423 36.47c1.06-1.82 1.265-1.606 1.297 1.36.02 1.936.66 4.684 1.422 6.106 1.11 2.075 1.602 2.244 2.481.856.895-1.413 1.1-1.365 1.116.262.019 1.977 3.748 6.131 5.504 6.131.502 0 .556-.703.12-1.562-.434-.86.117-.44 1.227.931 1.732 2.142 2.183 2.23 3.198.625 1.021-1.615 1.184-1.59 1.2.185.04 4.14 8.516 4.772 18.929 1.409 4.438-1.434 8.702-4.096 12.643-7.895 5.053-4.87 5.961-6.473 6.036-10.65.072-4.056.295-4.48 1.273-2.418.89 1.877 1.032 1.253.572-2.5-.425-3.467-.246-4.425.583-3.125 2.595 4.07 1.242-1.846-1.422-6.215-1.48-2.429-1.84-3.673-.817-2.824 1.005.835 2.162 1.184 2.57.776 1.288-1.288 2.433 7.885 1.526 12.228-3.768 18.055-25.18 30.064-43.463 24.377zm9.723-17.077c-.438-.709.064-.918 1.176-.492 2.165.831 2.562 1.727.764 1.727-.647 0-1.52-.556-1.94-1.235zM.349 29.935c0-3.093.244-4.359.542-2.812.298 1.547.298 4.078 0 5.625-.298 1.547-.542.281-.542-2.813zm39.115.367c-.678-1.782-.535-1.925.7-.7.854.848 1.238 1.857.853 2.241-.384.385-1.083-.308-1.553-1.541zM16.1 28.998c-1.554-1.983-1.51-2.027.472-.472 1.203.943 2.188 1.928 2.188 2.187 0 1.03-1.027.367-2.66-1.715zm8.166-1.875l-2.381-2.813 2.812 2.382c2.643 2.237 3.382 3.243 2.382 3.243-.238 0-1.503-1.265-2.813-2.812zm-14.35-3.125L6.883 20.56l3.437 3.03c3.213 2.833 4.011 3.845 3.03 3.845-.223 0-1.77-1.547-3.437-3.437zm20.719-3.639c-6.965-6.481-7.045-6.614-1.123-1.865 5.804 4.654 10.261 9.015 9.088 8.893-.256-.027-3.84-3.19-7.965-7.028zm20.173.201c-.396-1.03-.175-1.875.491-1.875.666 0 1.21.844 1.21 1.875 0 1.032-.22 1.875-.49 1.875s-.815-.843-1.211-1.875zM33.6 16.498c-1.554-1.983-1.51-2.027.472-.472 2.083 1.633 2.745 2.66 1.716 2.66-.26 0-1.244-.985-2.188-2.188zm17.115-1.196c-.678-1.782-.535-1.925.7-.7.854.848 1.238 1.857.853 2.241-.384.385-1.083-.308-1.553-1.541zm7.5-1.25c-.678-1.782-.535-1.925.7-.7.854.848 1.238 1.857.853 2.241-.384.385-1.083-.308-1.553-1.541zM19.85 11.498c-1.554-1.983-1.51-2.027.472-.472 2.083 1.633 2.745 2.66 1.716 2.66-.26 0-1.244-.985-2.188-2.188zm35.722-1.664c-.46-.743-2.602-2.429-4.761-3.745-2.16-1.317-3.232-2.396-2.383-2.399 1.6-.005 10.372 7.394 8.843 7.459-.475.02-1.24-.572-1.699-1.315zM15.926 3.53c.847-.854 1.856-1.238 2.24-.853.386.385-.308 1.084-1.54 1.553-1.782.678-1.926.535-.7-.7zm27.598-.699c.903-.36 1.98-.316 2.396.1.416.415-.323.71-1.64.656-1.456-.06-1.753-.357-.756-.756z" fill="#d7cac3"/><path d="M25.96 55.301c1.556-.299 3.806-.287 5 .025 1.196.313-.076.558-2.826.544-2.75-.014-3.728-.27-2.173-.569zm-9.665-1.567c-2.976-1.882-.946-2.28 2.464-.482 1.722.907 2.283 1.646 1.25 1.646-1.031 0-2.703-.524-3.714-1.164zm17.568.752c.286-.247 2.208-.826 4.27-1.288 2.74-.612 3.245-.496 1.876.43-1.688 1.142-7.4 1.94-6.146.858zM8.466 48.58c-2.245-2.121-3.427-3.524-2.626-3.117.8.406 1.74.032 2.088-.831.39-.967.671-.748.732.568.054 1.176 1.33 3.286 2.835 4.688 1.504 1.401 2.357 2.548 1.894 2.548-.462 0-2.678-1.735-4.923-3.856zm36.577 1.795c5.515-3.68 12.466-10.895 12.466-12.942 0-1.098.494-2.531 1.098-3.184 2.122-2.294 2.669-9.871.95-13.167-1.34-2.568-1.358-3.229-.091-3.229 2.041 0 3.44 7.37 2.372 12.5-1.331 6.394-6.402 14.053-12.057 18.211-2.895 2.13-5.842 3.872-6.547 3.872-.705 0 .11-.927 1.81-2.061zM2.902 41.498c-.428-1.203-.936-2.496-1.128-2.872-.193-.377.106-1.424.664-2.327.668-1.08 1.195-.097 1.542 2.873.571 4.892.155 5.79-1.078 2.326zm25.24-4.048c-.437-.709.064-.918 1.177-.492 2.165.831 2.562 1.727.764 1.727-.647 0-1.52-.556-1.94-1.235zM.35 29.935c0-3.093.244-4.359.542-2.812.298 1.547.298 4.078 0 5.625-.298 1.547-.542.281-.542-2.813zm9.565-5.937l-3.03-3.438 3.437 3.03c3.213 2.833 4.011 3.845 3.03 3.845-.223 0-1.77-1.547-3.437-3.437zm24.391-.625l-3.671-4.063 4.062 3.672c2.235 2.019 4.063 3.847 4.063 4.062 0 .966-1.032.116-4.454-3.671zm16.329-3.438c-.425-.687-.177-1.25.551-1.25s1.324.563 1.324 1.25c0 .688-.248 1.25-.551 1.25-.304 0-.9-.562-1.324-1.25zm-25.119-4.062l-2.381-2.813 2.812 2.382c2.643 2.237 3.382 3.243 2.382 3.243-.238 0-1.503-1.265-2.813-2.812zm28.75-7.5L51.884 5.56l2.812 2.382c2.643 2.237 3.382 3.243 2.382 3.243-.238 0-1.503-1.265-2.813-2.812z" fill="#d1c2bb"/><path d="M25.321 55.324c1.203-.315 3.172-.315 4.375 0 1.203.314.22.571-2.187.571-2.406 0-3.39-.257-2.188-.571zm-9.026-1.59c-2.976-1.882-.946-2.28 2.464-.482 1.722.907 2.283 1.646 1.25 1.646-1.031 0-2.703-.524-3.714-1.164zm-8.59-5.465c-2.033-2.164-2.265-2.917-.898-2.917 1.013 0 1.552.469 1.198 1.042-.354.573-.108 1.041.546 1.041.655 0 1.514.844 1.91 1.875.985 2.569.442 2.363-2.756-1.041zm44.491-3.534c2.922-3.036 5.313-6.45 5.313-7.586 0-1.136.488-2.368 1.086-2.737 2.175-1.345 2.825-10.92.937-13.802-1.488-2.27-1.507-2.758-.11-2.758.934 0 1.637.328 1.562.73-.074.4.28 2.2.788 3.998 1.962 6.945-4.424 21.053-11.58 25.58-2.314 1.465-1.712.435 2.004-3.425zM2.147 39.937c-.36-1.375-.144-2.814.48-3.2.622-.384 1.132.74 1.132 2.5 0 3.83-.713 4.139-1.612.7zM.299 29.935c0-2.406.257-3.39.572-2.187.314 1.203.314 3.172 0 4.375-.315 1.203-.572.219-.572-2.188zm9.55-5.937c-1.554-1.983-1.51-2.027.472-.472 1.203.943 2.188 1.928 2.188 2.187 0 1.03-1.027.367-2.66-1.715z" fill="#ccbcb4"/><path d="M25.946 55.357c.86-.346 2.266-.346 3.125 0 .86.347.157.631-1.562.631s-2.422-.284-1.563-.63zM8.134 48.685c-.425-.687-.177-1.25.551-1.25s1.324.563 1.324 1.25c0 .688-.248 1.25-.551 1.25-.304 0-.9-.562-1.324-1.25zm-5.428-10c0-1.718.284-2.422.63-1.562.347.86.347 2.265 0 3.125-.346.86-.63.156-.63-1.563zm55.368-1.982c.545-1.316 1.538-4.823 2.208-7.793.67-2.97 1.456-5.162 1.748-4.87.946.946-2.181 13.347-3.585 14.214-.915.566-1.037.058-.371-1.551zm1.39-16.401c-.678-1.782-.535-1.925.7-.7.854.848 1.238 1.857.853 2.241-.384.385-1.083-.308-1.553-1.541z" fill="#c7b5ac"/></svg>