<svg xmlns="http://www.w3.org/2000/svg" width="132.436" height="132.436"><path d="M57.605 129.044c-3.596-2.833-5.881-3.472-14.496-4.048-11.273-.755-13.553-1.955-15.621-8.223-1.452-4.4-8.846-11.837-11.768-11.837-.931 0-3.014-1.07-4.629-2.378-2.53-2.048-3.032-3.83-3.633-12.873C6.87 80.822 6.235 78.5 3.381 74.757c-4.422-5.797-4.422-11.345 0-17.142 2.854-3.743 3.489-6.066 4.077-14.929.6-9.043 1.104-10.825 3.633-12.873 1.615-1.307 3.698-2.377 4.629-2.377 2.922 0 10.316-7.438 11.768-11.838 2.066-6.262 4.35-7.467 15.576-8.22 8.53-.57 10.902-1.23 14.615-4.062 5.797-4.421 11.345-4.421 17.142 0 3.713 2.832 6.085 3.492 14.615 4.063 11.225.752 13.51 1.957 15.576 8.22 1.452 4.4 8.846 11.837 11.768 11.837.931 0 3.014 1.07 4.629 2.377 2.53 2.048 3.032 3.83 3.633 12.873.588 8.863 1.223 11.186 4.077 14.929 4.422 5.797 4.422 11.345 0 17.142-2.854 3.743-3.489 6.065-4.077 14.928-.6 9.043-1.104 10.825-3.633 12.873-1.615 1.308-3.698 2.378-4.629 2.378-2.922 0-10.316 7.437-11.768 11.837-2.066 6.262-4.35 7.468-15.576 8.22-8.53.57-10.902 1.23-14.615 4.062-5.822 4.441-11.57 4.438-17.216-.011zm14.854-.953c5.795-4.275 11.922-6.074 17.602-5.165 6.853 1.095 10.42-1.025 13.616-8.096 2.809-6.215 6.363-9.48 13.348-12.26 4.969-1.978 6.876-6.182 5.932-13.072-.75-5.47 1.11-10.948 6.747-19.875 2.061-3.263 2.061-3.611 0-6.875-5.637-8.927-7.497-14.405-6.747-19.875 1.03-7.51-.892-10.873-8.063-14.114-6.215-2.81-9.48-6.363-12.26-13.349-1.978-4.968-6.181-6.875-13.072-5.931-5.47.75-10.948-1.11-19.874-6.747-3.264-2.061-3.612-2.061-6.876 0-8.926 5.637-14.405 7.497-19.874 6.747-6.89-.944-11.094.963-13.072 5.931-2.78 6.986-6.045 10.54-12.26 13.349-7.171 3.24-9.092 6.604-8.063 14.114.75 5.47-1.11 10.948-6.747 19.875-2.061 3.264-2.061 3.612 0 6.875 5.637 8.927 7.497 14.406 6.747 19.875-.944 6.89.963 11.094 5.932 13.072 6.985 2.78 10.54 6.045 13.348 12.26 3.196 7.07 6.763 9.191 13.616 8.096 5.68-.909 11.807.89 17.602 5.165 2.307 1.702 5.101 3.095 6.209 3.095 1.108 0 3.902-1.393 6.209-3.095z" fill="#ece6e3"/><path d="M58.732 129.298c-5.485-4.047-11.113-5.558-17.507-4.7-6.936.93-10.342-1.195-13.65-8.515-2.81-6.217-6.364-9.482-13.345-12.261-5.137-2.045-7.25-6.214-6.392-12.61.858-6.395-.653-12.023-4.7-17.508C1.412 71.364 0 67.98 0 66.186c0-1.796 1.412-5.179 3.138-7.518 4.047-5.485 5.558-11.113 4.7-17.508-.93-6.935 1.195-10.341 8.515-13.65 6.217-2.81 9.482-6.363 12.261-13.345 2.045-5.136 6.214-7.25 12.61-6.391 6.395.858 12.023-.653 17.508-4.7 5.385-3.973 9.65-3.973 15.036 0 5.485 4.047 11.113 5.558 17.507 4.7 6.397-.858 10.566 1.255 12.61 6.391 2.78 6.982 6.045 10.536 12.262 13.345 7.32 3.309 9.445 6.715 8.515 13.65-.858 6.395.653 12.023 4.7 17.508 3.973 5.385 3.973 9.65 0 15.036-4.047 5.485-5.558 11.113-4.7 17.507.93 6.935-1.195 10.342-8.515 13.65-6.217 2.81-9.482 6.364-12.261 13.345-2.045 5.137-6.214 7.25-12.61 6.392-6.395-.858-12.023.653-17.508 4.7-2.34 1.726-5.723 3.138-7.518 3.138s-5.178-1.412-7.518-3.138zm15.724-2.175c5.457-3.614 7.101-4.062 14.901-4.062 4.823 0 9.455-.445 10.295-.99.84-.544 2.591-3.356 3.893-6.25 2.815-6.26 6.711-10.075 12.95-12.682 2.52-1.053 5.044-2.627 5.607-3.497.563-.87 1.023-5.527 1.023-10.349 0-7.8.448-9.444 4.063-14.902 2.234-3.373 4.062-7.066 4.062-8.205 0-1.14-1.828-4.832-4.063-8.206-3.614-5.457-4.062-7.102-4.062-14.902 0-4.822-.445-9.454-.99-10.294-.543-.84-3.356-2.592-6.25-3.893-6.26-2.815-10.075-6.711-12.681-12.95-1.054-2.521-2.628-5.045-3.498-5.607-.87-.563-5.526-1.023-10.349-1.023-7.8 0-9.444-.449-14.901-4.063-3.374-2.234-7.067-4.062-8.206-4.062-1.14 0-4.832 1.828-8.206 4.062-5.457 3.614-7.101 4.063-14.901 4.063-4.823 0-9.48.46-10.35 1.023-.87.562-2.443 3.086-3.497 5.608-2.606 6.238-6.422 10.134-12.682 12.95-2.893 1.3-5.706 3.052-6.25 3.892-.544.84-.989 5.472-.989 10.294 0 7.8-.448 9.445-4.062 14.902-2.235 3.374-4.063 7.067-4.063 8.206 0 1.14 1.828 4.832 4.063 8.205 3.614 5.458 4.062 7.102 4.062 14.902 0 4.822.46 9.48 1.023 10.35.563.869 3.086 2.443 5.608 3.496 6.238 2.607 10.134 6.423 12.95 12.683 1.3 2.893 3.052 5.705 3.892 6.25.84.544 5.472.989 10.295.989 7.8 0 9.444.448 14.901 4.062 3.374 2.235 7.067 4.063 8.206 4.063 1.14 0 4.832-1.828 8.206-4.063z" fill="#e8e1dd"/><path d="M59.416 129.745c-5.205-4.095-11.773-5.893-18.852-5.163-5.95.614-6.545.409-9.701-3.342-1.85-2.198-3.363-4.778-3.363-5.733 0-2.258-8.314-10.571-10.57-10.571-.956 0-3.537-1.513-5.734-3.363-3.751-3.156-3.956-3.752-3.342-9.702.73-7.078-1.068-13.646-5.163-18.851-3.426-4.356-3.426-9.313 0-13.668C6.786 54.146 8.584 47.579 7.854 40.5c-.614-5.95-.41-6.546 3.342-9.702 2.197-1.849 4.778-3.362 5.733-3.362 2.257 0 10.571-8.314 10.571-10.571 0-.956 1.513-3.536 3.363-5.734 3.156-3.75 3.752-3.956 9.701-3.342 7.08.73 13.647-1.067 18.852-5.162 4.355-3.426 9.313-3.426 13.668 0C78.29 6.722 84.857 8.52 91.936 7.789c5.95-.614 6.545-.408 9.701 3.342 1.85 2.198 3.363 4.778 3.363 5.734 0 2.257 8.314 10.57 10.57 10.57.956 0 3.537 1.514 5.734 3.363 3.751 3.156 3.957 3.753 3.342 9.702-.73 7.079 1.068 13.646 5.163 18.852 3.426 4.355 3.426 9.312 0 13.668-4.095 5.205-5.893 11.773-5.163 18.851.614 5.95.41 6.546-3.342 9.702-2.198 1.85-4.778 3.363-5.733 3.363-.956 0-3.725 1.987-6.154 4.416-2.43 2.43-4.417 5.199-4.417 6.155 0 .955-1.513 3.535-3.363 5.733-3.156 3.75-3.752 3.956-9.701 3.342-7.08-.73-13.647 1.068-18.852 5.163-1.882 1.48-4.957 2.69-6.834 2.69-1.877 0-4.952-1.21-6.834-2.69zm15.123-2.561c5.006-3.595 6.489-4.008 14.58-4.063 4.953-.033 9.693-.505 10.533-1.05.84-.544 2.591-3.356 3.893-6.25 2.815-6.26 6.711-10.075 12.95-12.682 2.52-1.053 5.044-2.627 5.607-3.497.563-.87 1.05-5.634 1.084-10.588.054-8.09.467-9.574 4.062-14.58 5.012-6.979 5.012-9.598 0-16.577-3.595-5.006-4.008-6.489-4.062-14.58-.034-4.953-.506-9.693-1.05-10.533-.544-.84-3.357-2.592-6.25-3.893-6.26-2.815-10.076-6.711-12.682-12.95-1.054-2.521-2.628-5.045-3.498-5.607-.87-.563-5.634-1.05-10.588-1.084-8.09-.054-9.573-.467-14.58-4.062-6.978-5.012-9.598-5.012-16.577 0-5.006 3.595-6.489 4.008-14.58 4.062-4.953.034-9.718.521-10.587 1.084-.87.562-2.444 3.086-3.498 5.608-2.606 6.238-6.422 10.134-12.682 12.95-2.893 1.3-5.706 3.052-6.25 3.892-.544.84-1.016 5.58-1.05 10.534-.054 8.09-.467 9.573-4.062 14.579-5.012 6.98-5.012 9.598 0 16.578 3.595 5.005 4.008 6.489 4.062 14.579.034 4.954.521 9.718 1.084 10.588.563.87 3.086 2.444 5.608 3.497 6.238 2.607 10.134 6.423 12.95 12.683 1.3 2.893 3.052 5.705 3.892 6.25.84.544 5.587 1.016 10.55 1.05 8.118.054 9.56.456 14.375 4.012 6.788 5.014 9.841 5.023 16.766.05z" fill="#e3dad6"/><path d="M59.617 129.903c-5.741-4.516-11.868-6.408-17.85-5.51-6.872 1.03-11.168-1.446-13.87-7.992-2.605-6.309-5.138-8.907-11.254-11.548-7.191-3.105-9.652-7.164-8.6-14.185.897-5.98-.994-12.108-5.51-17.849-3.229-4.105-3.229-9.162 0-13.267 4.516-5.74 6.407-11.867 5.51-17.849-1.052-7.02 1.409-11.079 8.6-14.184 6.116-2.641 8.649-5.24 11.253-11.548 2.703-6.547 7-9.022 13.871-7.992 5.982.897 12.109-.994 17.85-5.51 4.104-3.229 9.162-3.229 13.266 0 5.741 4.516 11.868 6.407 17.85 5.51 6.872-1.03 11.168 1.445 13.87 7.992 2.605 6.308 5.138 8.907 11.254 11.548 7.191 3.105 9.652 7.164 8.6 14.184-.897 5.982.994 12.109 5.51 17.85 3.229 4.104 3.229 9.161 0 13.266-4.516 5.741-6.407 11.868-5.51 17.85 1.052 7.02-1.409 11.079-8.6 14.184-6.116 2.64-8.649 5.24-11.253 11.548-2.703 6.546-7 9.022-13.871 7.991-5.982-.897-12.109.995-17.85 5.51-4.104 3.23-9.162 3.23-13.266 0zm13.725-1.661c4.908-4.09 11.639-6.039 17.574-5.09 6.44 1.03 10.032-.92 12.435-6.754 2.588-6.284 6.318-10.098 12.499-12.78 6.47-2.809 8.419-6.185 7.367-12.766-.95-5.936 1-12.666 5.09-17.575 3.748-4.499 3.748-9.684 0-14.183-4.09-4.908-6.04-11.639-5.09-17.574 1.052-6.58-.897-9.958-7.367-12.766-6.181-2.682-9.911-6.496-12.5-12.78-2.402-5.834-5.994-7.785-12.434-6.755-5.935.95-12.666-1-17.574-5.09-1.944-1.618-5.135-2.943-7.092-2.943-1.957 0-5.148 1.325-7.092 2.944-4.908 4.09-11.639 6.038-17.574 5.09-6.44-1.03-10.032.92-12.435 6.754-2.588 6.284-6.318 10.098-12.499 12.78-6.47 2.808-8.419 6.185-7.367 12.766.95 5.935-1 12.666-5.09 17.574-3.748 4.5-3.748 9.684 0 14.183 4.09 4.909 6.04 11.64 5.09 17.575-1.052 6.58.897 9.957 7.367 12.765 6.181 2.683 9.911 6.497 12.5 12.78 2.402 5.834 5.994 7.785 12.434 6.755 5.935-.949 12.666 1 17.574 5.09 1.944 1.619 5.135 2.944 7.092 2.944 1.957 0 5.148-1.325 7.092-2.944z" fill="#dacec9"/><path d="M64.688 131.608c.859-.347 2.265-.347 3.124 0 .86.347.157.63-1.562.63s-2.422-.283-1.563-.63zm-6.682-3.235l-2.381-2.812 3.125 2.486c1.719 1.368 3.36 2.634 3.646 2.813.286.18-.048.326-.744.326-.695 0-2.336-1.266-3.646-2.813zm12.098 2.487c.287-.18 1.927-1.445 3.646-2.813l3.125-2.486-2.381 2.812c-1.31 1.547-2.95 2.813-3.646 2.813-.696 0-1.03-.147-.744-.326zm-33.518-6.79c1.216-.317 2.904-.297 3.75.046.847.342-.149.602-2.211.576-2.063-.025-2.755-.306-1.539-.622zm56.25 0c1.216-.317 2.904-.297 3.75.046.847.342-.149.602-2.211.576-2.063-.025-2.755-.306-1.539-.622zm-62.218-2.892c-1.248-1.38-2.038-2.73-1.756-3.002.282-.273 1.524.856 2.759 2.507 2.728 3.647 2.12 3.947-1.003.495zm70.14-.182c1.302-1.824 2.617-3.074 2.923-2.778.305.295-.76 1.787-2.368 3.315l-2.923 2.778 2.367-3.315zm-74.77-8.615c-1.15-2.004-3.953-4.778-6.227-6.164-2.275-1.387-3.476-2.524-2.67-2.527 1.963-.006 8.884 5.897 10.538 8.988 2.126 3.972.656 3.707-1.642-.297zm77.767 2.72c-.003-.94 2.179-3.893 4.848-6.562 2.67-2.67 5.622-4.851 6.562-4.849.94.003-.123 1.123-2.364 2.489-2.24 1.366-5.192 4.317-6.558 6.558-1.366 2.24-2.486 3.304-2.488 2.364zm-93.249-14.228l-2.381-2.812 3.125 2.486c1.719 1.368 3.36 2.634 3.646 2.813.286.18-.048.326-.744.326-.695 0-2.336-1.266-3.646-2.813zm107.098 2.487c.287-.18 1.927-1.445 3.646-2.813l3.125-2.486-2.381 2.812c-1.31 1.547-2.95 2.813-3.646 2.813-.696 0-1.03-.147-.744-.326zM7.744 94.31c.025-2.062.305-2.754.622-1.538s.296 2.904-.046 3.75c-.342.846-.602-.149-.576-2.211zm116.25 0c.025-2.062.305-2.754.622-1.538s.296 2.904-.046 3.75c-.342.846-.602-.149-.576-2.211zM3.118 73.679c-1.248-1.38-2.038-2.73-1.756-3.002.282-.273 1.524.856 2.759 2.507 2.728 3.647 2.12 3.947-1.003.495zm125.14-.182c1.302-1.824 2.617-3.074 2.923-2.778.305.295-.76 1.787-2.368 3.315l-2.923 2.778 2.367-3.315zM.197 66.186c0-1.719.283-2.422.63-1.563.347.86.347 2.266 0 3.125-.347.86-.63.157-.63-1.562zm131.25 0c0-1.719.283-2.422.63-1.563.347.86.347 2.266 0 3.125-.347.86-.63.157-.63-1.562zM1.25 61.588c0-.696 1.266-2.336 2.812-3.646l2.813-2.381-2.487 3.125c-1.367 1.719-2.633 3.36-2.812 3.646-.18.286-.326-.049-.326-.744zm127.007-2.712l-2.367-3.315 2.923 2.778c1.608 1.527 2.673 3.02 2.368 3.315-.306.295-1.621-.955-2.924-2.778zM7.744 38.06c.025-2.063.305-2.755.622-1.539s.296 2.904-.046 3.75c-.342.846-.602-.149-.576-2.211zm116.25 0c.025-2.063.305-2.755.622-1.539s.296 2.904-.046 3.75c-.342.846-.602-.149-.576-2.211zM10.903 31.123c1.528-1.608 3.02-2.673 3.315-2.368.295.306-.955 1.621-2.778 2.923l-3.315 2.368 2.778-2.923zm109.271.021c-1.623-1.352-2.413-2.458-1.756-2.458.657 0 2.213 1.125 3.457 2.5 2.859 3.159 2.119 3.14-1.701-.042zM19.699 26.193c2.24-1.367 5.192-4.318 6.558-6.558 1.366-2.24 2.486-3.305 2.488-2.365.006 2.223-9.188 11.417-11.41 11.411-.94-.002.123-1.122 2.364-2.488zm88.904-2.36c-2.67-2.67-4.85-5.622-4.848-6.563.003-.94 1.122.124 2.488 2.365 1.366 2.24 4.317 5.191 6.558 6.558 2.24 1.366 3.305 2.486 2.364 2.488-.94.003-3.893-2.179-6.562-4.848zM28.75 14.088c0-.696 1.266-2.336 2.812-3.646l2.813-2.381-2.487 3.125c-1.367 1.719-2.633 3.36-2.812 3.646-.18.286-.326-.049-.326-.744zm72.007-2.712L98.39 8.06l2.923 2.778c1.608 1.527 2.673 3.02 2.368 3.315-.306.295-1.621-.955-2.924-2.778zM36.587 7.82c1.215-.317 2.903-.297 3.75.046.846.342-.15.602-2.212.576-2.063-.025-2.755-.306-1.539-.622zm56.25 0c1.215-.317 2.903-.297 3.75.046.846.342-.15.602-2.212.576-2.063-.025-2.755-.306-1.539-.622zM58.402 3.623c1.528-1.608 3.02-2.673 3.315-2.368.295.306-.955 1.621-2.778 2.923l-3.315 2.368 2.778-2.923zm14.271.021c-1.623-1.352-2.413-2.458-1.756-2.458.657 0 2.213 1.125 3.457 2.5 2.859 3.159 2.119 3.14-1.701-.042zM64.687.358c.86-.347 2.266-.347 3.125 0 .86.347.157.63-1.562.63s-2.422-.283-1.563-.63z" fill="#d1c2bb"/><path d="M64.688 131.608c.859-.347 2.265-.347 3.124 0 .86.347.157.63-1.562.63s-2.422-.283-1.563-.63zm-7.347-3.86c-1.555-1.982-1.511-2.027.471-.472 1.204.944 2.188 1.928 2.188 2.188 0 1.029-1.026.366-2.66-1.716zm15.159 1.716c0-.26.984-1.244 2.188-2.188 1.982-1.555 2.026-1.51.471.472-1.633 2.082-2.659 2.745-2.659 1.716zm-35.313-5.356c.86-.347 2.266-.347 3.126 0 .859.347.156.63-1.563.63-1.719 0-2.422-.283-1.563-.63zm55 0c.86-.347 2.266-.347 3.126 0 .859.347.156.63-1.563.63-1.719 0-2.422-.283-1.563-.63zm-61.096-2.61c-1.555-1.982-1.511-2.026.471-.472 2.083 1.633 2.745 2.66 1.716 2.66-.26 0-1.244-.985-2.187-2.188zm67.659 1.716c0-.26.984-1.244 2.188-2.188 1.982-1.554 2.026-1.51.471.472-1.633 2.082-2.659 2.745-2.659 1.716zm-75.744-14.84l-2.381-2.813 2.813 2.381c1.546 1.31 2.812 2.575 2.812 2.813 0 1-1.006.261-3.244-2.382zm85.119.312c1.244-1.375 2.544-2.5 2.887-2.5.344 0-.393 1.125-1.637 2.5s-2.544 2.5-2.887 2.5c-.344 0 .393-1.125 1.637-2.5zm-98.284-8.438c-1.555-1.982-1.511-2.026.472-.472 1.203.944 2.187 1.928 2.187 2.188 0 1.029-1.026.366-2.66-1.716zM120 101.964c0-.26.984-1.244 2.188-2.188 1.982-1.554 2.026-1.51.471.472-1.633 2.082-2.659 2.745-2.659 1.716zM7.697 93.686c0-1.719.284-2.422.63-1.563.348.86.348 2.266 0 3.125-.346.86-.63.157-.63-1.562zm116.25 0c0-1.719.284-2.422.63-1.563.348.86.348 2.266 0 3.125-.346.86-.63.157-.63-1.562zM3.591 73.998c-1.555-1.982-1.511-2.026.472-.472 1.203.944 2.187 1.928 2.187 2.188 0 1.029-1.026.366-2.66-1.716zm122.659 1.716c0-.26.984-1.244 2.188-2.188 1.982-1.554 2.026-1.51.471.472-1.633 2.082-2.659 2.745-2.659 1.716zM.197 66.186c0-1.719.284-2.422.63-1.563.348.86.348 2.266 0 3.125-.346.86-.63.157-.63-1.562zm131.25 0c0-1.719.284-2.422.63-1.563.348.86.348 2.266 0 3.125-.346.86-.63.157-.63-1.562zM2.5 59.464c0-.26.984-1.244 2.188-2.188 1.982-1.554 2.026-1.51.471.472C3.526 59.83 2.5 60.493 2.5 59.464zm124.84-1.716c-1.554-1.982-1.51-2.026.472-.472 2.083 1.633 2.745 2.66 1.716 2.66-.26 0-1.244-.985-2.187-2.188zM7.698 38.686c0-1.719.284-2.422.63-1.563.348.86.348 2.266 0 3.125-.346.86-.63.157-.63-1.562zm116.25 0c0-1.719.284-2.422.63-1.563.348.86.348 2.266 0 3.125-.346.86-.63.157-.63-1.562zM8.75 33.214c0-.26.984-1.244 2.187-2.188 1.983-1.554 2.027-1.51.472.472-1.633 2.082-2.659 2.745-2.659 1.716zm112.34-1.716c-1.554-1.982-1.51-2.026.472-.472 2.083 1.633 2.745 2.66 1.716 2.66-.26 0-1.244-.985-2.187-2.188zm-97.965-7.812c1.244-1.375 2.544-2.5 2.887-2.5.344 0-.393 1.125-1.637 2.5s-2.544 2.5-2.887 2.5c-.344 0 .393-1.125 1.637-2.5zm84.881-.313l-2.381-2.812 2.812 2.381c2.644 2.238 3.382 3.244 2.382 3.244-.237 0-1.503-1.266-2.813-2.813zM30 11.963c0-.259.984-1.243 2.188-2.187 1.982-1.554 2.026-1.51.471.472C31.026 12.33 30 12.993 30 11.964zm69.84-1.715c-1.554-1.982-1.51-2.026.472-.472 1.204.944 2.188 1.928 2.188 2.188 0 1.029-1.026.366-2.66-1.716zm-62.652-2.39c.859-.347 2.265-.347 3.125 0 .859.347.156.63-1.563.63-1.719 0-2.422-.283-1.562-.63zm55 0c.859-.347 2.265-.347 3.125 0 .859.347.156.63-1.563.63-1.719 0-2.422-.283-1.562-.63zM56.25 5.714c0-.26.984-1.244 2.188-2.188 1.982-1.554 2.026-1.51.471.472-1.633 2.082-2.659 2.745-2.659 1.716zm17.34-1.716c-1.554-1.982-1.51-2.026.473-.472 1.203.944 2.187 1.928 2.187 2.188 0 1.029-1.026.366-2.66-1.716zM64.689.358c.859-.347 2.265-.347 3.125 0 .859.347.156.63-1.563.63-1.719 0-2.422-.283-1.562-.63z" fill="#c9b7af"/></svg>