<?xml version="1.0" encoding="UTF-8" standalone="no"?>
<!-- Created with Inkscape (http://www.inkscape.org/) -->

<svg
   xmlns:dc="http://purl.org/dc/elements/1.1/"
   xmlns:cc="http://creativecommons.org/ns#"
   xmlns:rdf="http://www.w3.org/1999/02/22-rdf-syntax-ns#"
   xmlns:svg="http://www.w3.org/2000/svg"
   xmlns="http://www.w3.org/2000/svg"
   xmlns:sodipodi="http://sodipodi.sourceforge.net/DTD/sodipodi-0.dtd"
   xmlns:inkscape="http://www.inkscape.org/namespaces/inkscape"
   width="17.657932mm"
   height="15.88213mm"
   viewBox="0 0 62.567477 56.275262"
   id="svg2"
   version="1.1"
   inkscape:version="0.91 r13725"
   sodipodi:docname="icon-bread.svg">
  <defs
     id="defs4" />
  <sodipodi:namedview
     id="base"
     pagecolor="#ffffff"
     bordercolor="#666666"
     borderopacity="1.0"
     inkscape:pageopacity="0.0"
     inkscape:pageshadow="2"
     inkscape:zoom="0.7"
     inkscape:cx="-298.9318"
     inkscape:cy="314.41245"
     inkscape:document-units="px"
     inkscape:current-layer="layer1"
     showgrid="false"
     fit-margin-top="0"
     fit-margin-left="0"
     fit-margin-right="0"
     fit-margin-bottom="0"
     inkscape:window-width="1920"
     inkscape:window-height="1026"
     inkscape:window-x="0"
     inkscape:window-y="0"
     inkscape:window-maximized="1" />
  <metadata
     id="metadata7">
    <rdf:RDF>
      <cc:Work
         rdf:about="">
        <dc:format>image/svg+xml</dc:format>
        <dc:type
           rdf:resource="http://purl.org/dc/dcmitype/StillImage" />
        <dc:title></dc:title>
      </cc:Work>
    </rdf:RDF>
  </metadata>
  <g
     inkscape:label="Layer 1"
     inkscape:groupmode="layer"
     id="layer1"
     transform="translate(-326.95544,-492.8733)">
    <g
       id="g3347"
       transform="translate(-22.5,-11.428571)">
      <path
         style="fill:#f5f3f1"
         d="m 365.75164,559.09647 c -5.72496,-2.28481 -11.54504,-7.66226 -13.89596,-12.83915 -3.07334,-6.76771 -3.08902,-18.48832 -0.0337,-25.21487 4.15926,-9.15705 17.14436,-17.84544 24.82936,-16.61343 l 2.70215,0.43319 -2.46104,3.125 c -1.46441,1.85951 -2.14711,2.23915 -1.68584,0.9375 0.95826,-2.70412 -2.97069,-3.09974 -4.00541,-0.40332 -0.37656,0.98131 -1.73909,1.58112 -3.02785,1.33293 -1.51429,-0.29163 -2.63313,0.46221 -3.16277,2.13098 -0.64699,2.03847 -1.04998,2.21842 -1.91377,0.85457 -0.75925,-1.1988 -1.10007,-0.50665 -1.11335,2.26107 -0.0105,2.1938 -0.5227,4.29994 -1.13816,4.68032 -1.43164,0.8848 -2.90355,-2.84175 -1.8169,-4.59999 0.48811,-0.78978 0.22855,-0.96344 -0.63881,-0.42738 -2.82724,1.74733 -6.40181,10.64853 -6.75805,16.82856 -0.29791,5.16797 -0.0646,6.00323 1.34931,4.82982 1.38791,-1.15186 1.65279,-0.72564 1.40799,2.26559 -0.58208,7.11255 0.39778,10.27223 1.33638,4.30935 0.74227,-4.71557 1.03863,-5.17029 1.83305,-2.8125 0.5212,1.54687 1.66317,2.8125 2.53773,2.8125 0.87455,0 1.95573,1.94902 2.40262,4.33115 0.44689,2.38213 1.30078,4.63291 1.89754,5.00173 0.59676,0.36881 0.80743,-0.59583 0.46815,-2.14366 -0.44986,-2.05235 -0.29006,-2.35293 0.59026,-1.11028 1.01914,1.43859 1.30308,1.43859 1.82328,0 0.33889,-0.93717 1.03325,0.41165 1.54302,2.99737 0.50977,2.58571 1.48585,5.04678 2.16907,5.46903 0.74771,0.46211 0.93289,-0.20685 0.46519,-1.68047 -0.54452,-1.71563 -0.19446,-2.4482 1.16987,-2.4482 1.14536,0 1.67334,0.71289 1.28243,1.73158 -0.36546,0.95238 -0.14729,1.41195 0.48484,1.02128 0.63212,-0.39067 1.50262,-0.13863 1.93445,0.56008 2.51029,4.06174 19.98052,-2.29277 24.88822,-9.05269 1.46824,-2.02236 2.52834,-5.50949 2.56384,-8.43354 0.0723,-5.95535 1.86208,-6.74654 2.10577,-0.93088 0.12839,3.06417 0.30572,3.35324 0.72159,1.17632 0.30325,-1.58741 -0.0253,-4.54053 -0.7302,-6.5625 -0.86448,-2.47986 -0.86851,-3.67632 -0.0124,-3.67632 0.72529,0 0.90788,-1.13845 0.42606,-2.65654 -0.60432,-1.90403 -0.41441,-2.39156 0.67042,-1.72109 0.83247,0.51449 0.47238,-0.65363 -0.80019,-2.59582 -2.16782,-3.3085 -2.17417,-3.47769 -0.10074,-2.68204 1.85127,0.71041 2.00857,0.46719 0.96229,-1.48782 -2.20955,-4.12858 -8.74692,-8.73486 -13.5314,-9.53432 -2.55788,-0.42741 -6.05695,-1.29769 -7.7757,-1.93397 -2.34343,-0.86753 -1.36257,-1.02446 3.92185,-0.62747 13.83133,1.0391 21.20962,8.59909 22.10423,22.64858 0.43221,6.78784 0.0253,8.74219 -2.96415,14.2347 -6.18611,11.36593 -17.26351,17.5815 -31.18693,17.49911 -4.8125,-0.0285 -10.13944,-0.60631 -11.83765,-1.28406 z m -5.43346,-12.59364 c -0.39903,-0.99716 -0.69523,-0.70096 -0.75521,0.75521 -0.0543,1.31771 0.24116,2.05599 0.65653,1.64063 0.41536,-0.41537 0.45977,-1.49349 0.0987,-2.39584 z m 9.21979,-9.39095 c -9.77711,-6.68899 -16.63056,-14.22012 -13.80447,-15.16949 0.68735,-0.23091 4.1188,2.15972 7.62545,5.3125 3.50665,3.15277 7.15864,5.73232 8.11553,5.73232 0.9569,0 1.73981,0.54485 1.73981,1.21077 0,0.66592 -0.98438,0.88022 -2.1875,0.47621 -1.20313,-0.40401 -0.0344,0.78865 2.59721,2.65035 2.63159,1.8617 5.07917,3.09045 5.43907,2.73055 0.3599,-0.35989 -2.01082,-3.50365 -5.26826,-6.98612 -6.12321,-6.5462 -6.46235,-7.78622 -1.18355,-4.32742 4.6299,3.03363 11.41079,15.49566 8.43156,15.49566 -0.59947,0 -5.77665,-3.2064 -11.50485,-7.12533 z m 17.62106,-3.84579 c -1.61164,-2.55964 -7.09601,-7.9819 -12.1875,-12.04947 -5.09148,-4.06758 -9.25724,-7.93333 -9.25724,-8.59056 0,-1.31905 0.0693,-1.27508 9.375,5.94772 l 6.25,4.85105 -4.375,-4.78153 c -2.40625,-2.62984 -3.8125,-4.49041 -3.125,-4.1346 0.6875,0.35582 3.35051,1.62518 5.9178,2.8208 5.3385,2.48622 9.69517,8.75622 10.98489,15.80913 1.10666,6.05188 0.16831,6.08526 -3.58295,0.12746 z m -0.0825,-6.31918 c -0.67415,-1.25967 -2.20817,-3.0878 -3.40893,-4.0625 -1.90384,-1.54543 -2.04819,-1.53228 -1.12812,0.1028 1.29128,2.29475 4.63744,6.25 5.28753,6.25 0.26139,0 -0.0763,-1.03064 -0.75048,-2.2903 z m 8.97944,-6.04249 c -5.87759,-6.02652 -5.2545,-7.28608 1.00063,-2.02273 3.46876,2.91877 3.83477,3.02201 2.61172,0.73672 -0.78232,-1.46177 -3.49785,-3.94046 -6.03452,-5.50821 -2.57378,-1.59068 -3.91762,-3.08195 -3.04067,-3.37426 2.3433,-0.7811 10.41652,6.26229 11.74456,10.24642 1.9066,5.71979 -0.65831,5.68797 -6.28172,-0.0779 z"
         id="path3373"
         inkscape:connector-curvature="0" />
      <path
         style="fill:#f3f0ee"
         d="m 366.33929,558.97902 c -10.55062,-3.68799 -16.875,-13.12364 -16.875,-25.17661 0,-8.38616 1.96598,-13.69633 7.33453,-19.81077 4.3231,-4.92373 14.98507,-10.1145 19.54638,-9.51611 2.75818,0.36183 2.8218,0.54731 0.99016,2.88668 -1.75862,2.24612 -1.87541,2.26372 -1.15006,0.17332 0.64568,-1.86077 0.36648,-2.14384 -1.39433,-1.41361 -1.21093,0.50219 -2.85118,0.93981 -3.645,0.97251 -0.79383,0.0327 -1.16411,0.78709 -0.82284,1.67642 0.41693,1.0865 -0.2373,1.45179 -1.99417,1.11344 -1.43807,-0.27694 -2.61467,0.0267 -2.61467,0.67469 0,0.64803 -0.6557,1.0376 -1.45712,0.86573 -0.80142,-0.17188 -1.86121,1.54417 -2.3551,3.81343 -0.49389,2.26927 -1.31431,4.51927 -1.82316,5 -0.50886,0.48074 -0.55118,-0.34422 -0.0941,-1.83323 1.27279,-4.14594 -1.28132,-4.62028 -4.01098,-0.7449 -3.06586,4.3527 -4.12109,7.75076 -4.59644,14.80153 -0.32889,4.8783 -0.13464,5.39317 1.51742,4.02208 1.64445,-1.36478 1.78436,-1.07053 1.0597,2.22883 -0.45919,2.09065 -0.28675,5.17337 0.38319,6.85047 1.11766,2.79788 1.23865,2.63705 1.46754,-1.95071 0.15104,-3.02721 0.4632,-3.89031 0.79118,-2.1875 0.29794,1.54687 1.06508,2.8125 1.70477,2.8125 0.63968,0 1.22961,1.26562 1.31095,2.8125 0.11957,2.27383 0.33066,2.09427 1.10211,-0.9375 0.89186,-3.50494 0.96677,-3.54579 1.1464,-0.625 0.1057,1.71875 0.94075,4.47578 1.85565,6.12674 l 1.66346,3.00173 1.31856,-3.62673 c 0.72837,-2.00339 1.36273,-2.68402 1.41725,-1.52061 0.0543,1.15837 0.70356,3.68962 1.44286,5.625 l 1.34419,3.51887 1.49745,-2.78477 c 1.47356,-2.74032 1.5221,-2.74531 3.04141,-0.3125 2.58501,4.13927 11.4079,2.84663 21.22313,-3.10939 4.58077,-2.77967 7.69437,-9.60833 8.13861,-17.84936 0.27891,-5.17394 1.43424,-6.8996 2.51497,-3.75648 0.29549,0.85937 0.40055,0.71875 0.23347,-0.3125 -0.16708,-1.03125 -0.74443,-2.95165 -1.28302,-4.26756 -0.76747,-1.87513 -0.59539,-2.15592 0.79569,-1.29834 1.17529,0.72455 0.98336,-0.1161 -0.56813,-2.48837 -2.06989,-3.1649 -2.09916,-3.48899 -0.25109,-2.77982 1.95409,0.74985 1.95475,0.57046 0.01,-2.72182 -2.77751,-4.70187 -5.85801,-6.52451 -15.54086,-9.19503 l -8.125,-2.24087 7.35993,0.65209 c 8.95596,0.7935 13.50576,3.31965 17.8912,9.93361 12.63989,19.06299 -5.04474,44.66075 -30.61052,44.30743 -3.92734,-0.0543 -8.82811,-0.68856 -10.89061,-1.40951 z m -3.94365,-6.67072 c -0.40711,-1.0609 -1.00828,-1.66083 -1.33594,-1.33316 -0.32766,0.32766 -0.22498,1.19567 0.22819,1.92891 1.23256,1.99432 1.95298,1.60688 1.10775,-0.59575 z m 44.18031,-16.50859 c -0.31441,-1.20313 -0.57166,-0.21875 -0.57166,2.1875 0,2.40625 0.25725,3.39062 0.57166,2.1875 0.31441,-1.20313 0.31441,-3.17188 0,-4.375 z m -42.01298,13.95833 c 0.06,-1.45617 0.35618,-1.75237 0.75521,-0.75521 0.36109,0.90235 0.31668,1.98047 -0.0987,2.39584 -0.41536,0.41536 -0.7108,-0.32292 -0.65652,-1.64063 z m 7.38797,-11.08486 c -4.46141,-3.06022 -9.30695,-6.57584 -10.76788,-7.8125 -3.36915,-2.85195 -7.3819,-9.12347 -5.83753,-9.12347 2.22325,0 11.63342,8.96501 10.8095,10.29814 -0.48385,0.78289 -0.23892,0.97467 0.59029,0.46219 1.7259,-1.06666 6.79884,1.44466 5.88971,2.91566 -0.60359,0.97663 4.48706,5.07401 6.30404,5.07401 1.4903,0 -3.44058,-6.82927 -7.42157,-10.27887 -2.16052,-1.87213 -3.29673,-3.41901 -2.52491,-3.4375 1.6261,-0.039 11.7217,10.5859 11.7217,12.33621 0,0.64663 0.34143,2.06545 0.75874,3.15293 1.20413,3.13791 -0.84189,2.36721 -9.52209,-3.5868 z m 15.80326,-4.91707 c -1.27242,-2.36274 -6.72932,-7.83743 -12.12645,-12.16598 -5.39713,-4.32855 -9.55629,-8.12676 -9.24258,-8.44047 0.31372,-0.31371 4.01049,2.10109 8.21506,5.36623 4.20457,3.26514 7.22612,5.18506 6.71456,4.26647 -0.51155,-0.91858 0.8087,0.2986 2.9339,2.70485 2.1252,2.40625 3.88686,3.73136 3.9148,2.94469 0.074,-2.08435 -7.18137,-9.50776 -8.49754,-8.69432 -0.61465,0.37987 -2.16217,-0.56168 -3.43894,-2.09235 -1.27676,-1.53066 -1.56464,-2.12385 -0.63973,-1.3182 0.9249,0.80565 2.36788,1.20149 3.2066,0.87964 2.36785,-0.90863 10.43343,8.87119 11.35131,13.76387 1.21774,6.49114 0.2265,7.64596 -2.39099,2.78557 z m 8.89875,-12.38805 c -5.57767,-6.01028 -5.39474,-7.36538 0.34258,-2.53775 3.6237,3.04915 3.92599,3.12976 2.62575,0.70023 -0.80818,-1.51009 -3.5547,-4.16261 -6.10337,-5.89448 -5.48242,-3.7254 -3.98391,-4.2402 1.90002,-0.65273 4.49052,2.73789 9.00765,10.60348 7.09634,12.35673 -0.6901,0.63304 -3.10888,-1.00608 -5.86132,-3.972 z"
         id="path3371"
         inkscape:connector-curvature="0" />
      <path
         style="fill:#f1edea"
         d="m 363.60725,557.44478 c -8.59438,-4.0015 -13.183,-10.78219 -13.8875,-20.52185 -0.68178,-9.42549 1.28567,-16.1155 6.54706,-22.26225 4.69439,-5.48434 15.2182,-10.82275 20.07839,-10.18515 2.75818,0.36183 2.8218,0.54731 0.99016,2.88668 -1.57824,2.01573 -1.81136,2.07627 -1.20347,0.3125 1.03532,-3.00391 -1.11031,-2.74479 -4.38461,0.52951 -1.87114,1.87114 -2.47469,2.08553 -1.93866,0.68866 0.54689,-1.42516 0.24183,-1.82247 -1.02581,-1.33603 -0.99229,0.38078 -1.43596,1.33651 -0.98593,2.12384 0.45002,0.78734 0.36178,1.01839 -0.19609,0.51345 -0.55787,-0.50494 -1.81477,0.0576 -2.7931,1.25 -0.97834,1.19244 -1.36892,1.37803 -0.86796,0.41243 0.59883,-1.15424 0.41649,-1.45011 -0.53231,-0.86372 -0.79372,0.49054 -1.45174,2.12433 -1.46227,3.63063 -0.0105,1.5063 -0.60988,3.58248 -1.33188,4.61373 -1.0389,1.48386 -1.15468,1.31023 -0.55502,-0.8323 1.16215,-4.15225 -1.36035,-4.61229 -4.08438,-0.7449 -3.06586,4.3527 -4.12109,7.75076 -4.59644,14.80153 -0.29105,4.31707 -0.0257,5.30277 1.16204,4.31701 1.18208,-0.98103 1.51144,0.0115 1.41952,4.27756 -0.0658,3.05524 0.45627,6.13121 1.16023,6.83547 0.8733,0.87369 1.19977,-0.39689 1.02763,-3.99944 -0.13876,-2.90396 0.0275,-4.01431 0.36951,-2.46743 0.342,1.54687 1.14518,2.8125 1.78487,2.8125 0.63968,0 1.22961,1.26562 1.31095,2.8125 0.11957,2.27383 0.33066,2.09427 1.10211,-0.9375 0.89186,-3.50494 0.96677,-3.54579 1.1464,-0.625 0.1057,1.71875 0.94075,4.47578 1.85565,6.12674 l 1.66346,3.00173 1.31856,-3.62673 c 0.72837,-2.00339 1.36273,-2.68402 1.41725,-1.52061 0.0543,1.15837 0.70356,3.68962 1.44286,5.625 l 1.34419,3.51887 1.49745,-2.78477 c 1.47356,-2.74032 1.5221,-2.74531 3.04141,-0.3125 2.58501,4.13927 11.4079,2.84663 21.22313,-3.10939 3.72224,-2.25871 6.1952,-6.72484 8.32969,-15.04334 0.35282,-1.375 0.42326,-0.25 0.15654,2.5 -0.42693,4.40179 -0.31957,4.65223 0.89731,2.09324 0.98509,-2.07155 1.00602,-4.31636 0.0728,-7.8125 -0.72018,-2.69816 -0.89088,-4.90574 -0.37935,-4.90574 1.25381,0 0.83152,-6.43114 -0.56797,-8.64992 -0.85311,-1.35254 -0.60991,-1.57937 1.02194,-0.95317 1.98042,0.75996 1.97234,0.53259 -0.10744,-3.02323 -2.78057,-4.75397 -5.08029,-6.06576 -15.37392,-8.7695 -5.29219,-1.39005 -6.90158,-2.17248 -4.61602,-2.24415 14.5363,-0.45582 25.90364,10.33481 25.83857,24.52767 -0.0373,8.12788 -3.46345,15.07147 -10.48752,21.25431 -10.70776,9.42534 -25.52498,11.80034 -37.84207,6.06556 z m 12.10704,-0.009 c 0,-0.30318 -0.5625,-0.89887 -1.25,-1.32377 -0.6875,-0.4249 -1.25,-0.17684 -1.25,0.55123 0,0.72807 0.5625,1.32377 1.25,1.32377 0.6875,0 1.25,-0.24805 1.25,-0.55123 z m -13.31865,-5.12768 c -0.40711,-1.0609 -1.00828,-1.66083 -1.33594,-1.33316 -0.32766,0.32766 -0.22498,1.19567 0.22819,1.92891 1.23256,1.99432 1.95298,1.60688 1.10775,-0.59575 z m 45.42254,-22.05547 c -0.39903,-0.99716 -0.69523,-0.70096 -0.75521,0.75521 -0.0543,1.31771 0.24116,2.05599 0.65653,1.64063 0.41536,-0.41537 0.45977,-1.49349 0.0987,-2.39584 z m 0.62528,-5.03645 c -0.89696,-0.89696 -1.47917,-0.97076 -1.47917,-0.1875 0,1.66847 1.47826,3.14673 2.3125,2.3125 0.35521,-0.35521 -0.0198,-1.31146 -0.83333,-2.125 z m -43.88049,24.54166 c 0.06,-1.45617 0.35618,-1.75237 0.75521,-0.75521 0.36109,0.90235 0.31668,1.98047 -0.0987,2.39584 -0.41536,0.41536 -0.7108,-0.32292 -0.65652,-1.64063 z m 7.40132,-11.09469 c -9.17679,-6.20812 -16.75444,-13.54173 -16.07776,-15.55997 0.24902,-0.74271 2.98401,0.93395 6.07776,3.7259 3.09375,2.79196 4.83496,4.67024 3.86937,4.17397 -1.12386,-0.57761 -1.44682,-0.40263 -0.89747,0.48623 0.47199,0.7637 1.55941,1.11945 2.4165,0.79055 0.85708,-0.32889 2.66719,0.25956 4.02247,1.30767 2.44605,1.89166 2.44579,1.89957 -0.0359,1.07841 -3.19839,-1.05832 -2.33247,-0.10087 3.47009,3.83685 2.5602,1.7374 4.65121,2.75398 4.64668,2.25908 -0.0163,-1.78377 -4.85277,-8.19662 -8.32271,-11.03546 -1.94923,-1.5947 -2.91258,-2.91969 -2.14076,-2.94442 2.62317,-0.084 11.7217,11.01746 11.7217,14.30212 0,1.73411 -0.14063,3.13554 -0.3125,3.11429 -0.17188,-0.0213 -3.96875,-2.5121 -8.4375,-5.53522 z m 16.42222,-4.08618 c -1.35563,-3.21242 -13.20399,-14.28669 -20.68597,-19.33449 -0.70887,-0.47825 -0.98868,-1.16971 -0.62179,-1.53659 0.36688,-0.36688 2.60059,0.98592 4.9638,3.00623 5.04374,4.3119 7.59882,4.96017 4.17797,1.06002 -1.45694,-1.66107 -1.65343,-2.28121 -0.50623,-1.59765 1.03125,0.61447 2.64649,1.23392 3.58943,1.37656 5.25043,0.79424 12.08238,11.92456 11.18785,18.22677 -0.36453,2.56824 -0.56207,2.45555 -2.10506,-1.20085 z m 0.1945,-5.02746 c -1.43477,-3.8997 -4.22496,-7.5959 -7.21088,-9.55235 -4.70074,-3.08004 -3.23531,0.70921 2.52779,6.53627 5.8183,5.88286 5.71284,5.81494 4.68309,3.01608 z m -8.02616,-7.5 c -1.55484,-1.98257 -1.51063,-2.02678 0.47194,-0.47194 1.20312,0.94355 2.1875,1.92793 2.1875,2.1875 0,1.02879 -1.02648,0.36662 -2.65944,-1.71556 z m 15.79435,-1.37959 -4.99009,-5.80791 4.80943,3.60168 c 4.11728,3.08333 4.60607,3.22168 3.39638,0.96135 -0.77718,-1.45218 -3.49834,-4.05731 -6.04701,-5.78918 -2.54868,-1.73187 -4.02406,-3.14885 -3.27864,-3.14885 2.85797,0 9.74554,5.7952 11.23288,9.45134 2.67585,6.57767 0.20332,6.93075 -5.12295,0.73157 z"
         id="path3369"
         inkscape:connector-curvature="0" />
      <path
         style="fill:#eee8e6"
         d="m 363.37578,557.20857 c -8.48656,-4.22903 -12.88885,-10.65659 -13.65893,-19.94272 -0.72403,-8.73093 1.48298,-16.53161 6.34662,-22.43204 4.36008,-5.28953 14.67446,-10.61919 20.27582,-10.47695 l 3.75,0.0952 -3.75,1.21069 c -4.1723,1.34703 -6.9902,2.08494 -8.51127,2.22879 -0.5562,0.0526 -0.65502,0.67208 -0.21959,1.37661 0.43543,0.70453 0.328,1.20042 -0.23873,1.10197 -2.52038,-0.43782 -4.23974,0.21934 -3.53926,1.35274 0.42982,0.69546 -0.0445,0.92554 -1.08502,0.52626 -1.39912,-0.53689 -1.69253,-10e-4 -1.20649,2.20182 0.48799,2.21208 0.33887,2.48025 -0.62094,1.11662 -3.10752,-4.41498 -9.01562,6.13571 -9.64378,17.22187 -0.34138,6.02493 -0.20127,6.45233 1.43412,4.375 1.65745,-2.10536 1.75785,-1.9281 1.17398,2.07275 -0.35325,2.42063 0.11856,6.05017 1.05619,8.125 1.67123,3.69815 1.68931,3.66359 1.30742,-2.5 -0.21298,-3.4375 -0.0846,-4.84375 0.28534,-3.125 0.36992,1.71875 1.2296,3.80349 1.91042,4.63274 0.68081,0.82926 0.98009,1.95426 0.66507,2.5 -0.31502,0.54575 0.55317,2.11726 1.92931,3.49226 l 2.50207,2.5 -1.41192,-2.73032 c -0.77656,-1.50168 -1.38723,-4.03293 -1.35705,-5.625 0.0411,-2.16753 0.48311,-1.69381 1.75967,1.88583 2.27651,6.38363 2.90037,6.79061 3.95684,2.5813 l 0.89305,-3.55819 1.3904,4.97319 c 1.04679,3.74415 2.11108,5.0764 4.30653,5.39081 1.87828,0.26899 2.61356,-0.0719 2.06601,-0.95789 -0.46756,-0.75653 -1.46066,-0.99817 -2.20688,-0.53698 -0.83565,0.51645 -0.99486,0.25295 -0.41453,-0.68604 0.70903,-1.14724 1.52333,-0.99868 3.29009,0.60021 2.96109,2.67976 10.03449,1.90813 18.0418,-1.96814 5.9107,-2.86132 8.48073,-6.40969 10.60402,-14.64066 l 1.21968,-4.72812 -0.53173,4.71551 c -0.31104,2.7583 -0.0436,4.41385 0.64422,3.98873 1.54419,-0.95436 1.50114,-7.00637 -0.0813,-11.43537 -1.20839,-3.38202 -1.17801,-3.42164 0.78121,-1.01887 1.99159,2.44246 2.01832,2.42807 1.16118,-0.625 -1.39964,-4.98546 -1.62632,-10 -0.45205,-10 1.88958,0 -2.643,-7.35965 -5.5585,-9.02544 -1.53976,-0.87976 -6.45581,-2.52116 -10.92456,-3.64756 -5.76453,-1.45302 -7.03555,-2.08651 -4.375,-2.18053 14.0988,-0.49826 25.6614,10.56461 25.59755,24.49123 -0.0373,8.12788 -3.46345,15.07147 -10.48752,21.25431 -10.90477,9.59876 -25.9016,11.89489 -38.07354,5.82935 z m 45.06768,-31.99219 c -0.89696,-0.89696 -1.47917,-0.97076 -1.47917,-0.1875 0,1.66847 1.47826,3.14673 2.3125,2.3125 0.35521,-0.35521 -0.0198,-1.31146 -0.83333,-2.125 z M 372.58929,538.985 c -8.86522,-5.87233 -16.875,-13.32209 -16.875,-15.69515 0,-0.94265 3.09091,0.82784 6.98958,4.00368 3.84428,3.13153 7.64115,5.70229 8.4375,5.71282 0.96287,0.0127 0.90547,0.36325 -0.17132,1.04634 -1.16586,0.73959 -0.20336,1.96419 3.4375,4.3736 2.78121,1.84051 5.05674,3.02923 5.05674,2.64158 0,-2.17077 -4.24751,-8.31683 -7.78772,-11.26868 -2.48527,-2.07223 -2.87465,-2.67611 -0.99344,-1.54071 4.67633,2.82239 10.29639,10.3719 9.82394,13.19664 -0.38325,2.29143 -1.03768,2.08727 -7.91778,-2.47012 z m -3.22917,-5.1015 c -0.28646,-0.19454 -1.64583,-1.17892 -3.02083,-2.1875 -2.31251,-1.69626 -2.37134,-1.66973 -0.78444,0.35371 0.94355,1.20312 2.30293,2.1875 3.02083,2.1875 0.7179,0 1.0709,-0.15917 0.78444,-0.35371 z m 18.95442,0.59573 c -0.89722,-2.16607 -5.45601,-7.06742 -10.13065,-10.89189 -9.5064,-7.77749 -14.24519,-12.8106 -7.8199,-8.30559 2.21358,1.55202 4.35615,3.35817 4.76127,4.01366 0.40511,0.65549 1.35306,1.1918 2.10654,1.1918 0.75347,0 0.2984,-1.26563 -1.01128,-2.8125 -2.36095,-2.78855 -2.35994,-2.79526 0.11877,-0.78811 1.375,1.11341 3.12621,1.7953 3.89157,1.51531 2.21304,-0.8096 9.03067,7.85833 9.9233,12.61649 1.1509,6.13482 0.0926,8.12572 -1.83962,3.46083 z m -0.29018,-6.49954 c -1.44935,-4.15762 -6.9312,-9.12418 -8.79763,-7.97066 -0.86551,0.53491 7.72303,10.65353 9.86004,11.61665 0.13611,0.0614 -0.34198,-1.57936 -1.06241,-3.64599 z m -7.46951,-5.92998 c -1.55484,-1.98257 -1.51063,-2.02678 0.47194,-0.47194 1.20312,0.94355 2.1875,1.92793 2.1875,2.1875 0,1.02879 -1.02648,0.36662 -2.65944,-1.71556 z m 15.78444,-1.54224 -5,-5.60474 4.85561,3.60908 c 2.67059,1.98499 4.59518,2.81963 4.27687,1.85474 -0.31832,-0.96489 -2.96894,-3.58247 -5.89029,-5.81684 -6.2742,-4.79879 -5.23314,-5.44574 1.45257,-0.90268 4.43006,3.01031 6.64808,7.19349 5.72843,10.80381 -0.25493,1.00081 -2.4112,-0.56709 -5.42319,-3.94337 z"
         id="path3367"
         inkscape:connector-curvature="0" />
      <path
         style="fill:#ebe5e2"
         d="m 363.08596,557.00599 -6.66382,-3.48122 -0.25709,-7.45628 -0.25709,-7.45628 1.28496,5.625 c 0.70672,3.09375 1.6956,5.90625 2.19749,6.25 0.5019,0.34375 1.61006,1.75 2.46259,3.125 1.55005,2.5 1.55005,2.5 0.65388,0 -0.49289,-1.375 -1.11704,-4.1875 -1.387,-6.25 -0.42147,-3.21998 -0.22247,-3.04331 1.40796,1.25 1.04435,2.75 1.90728,5.17382 1.91763,5.38627 0.0104,0.21245 0.58132,0.0386 1.26882,-0.38627 0.6875,-0.4249 1.29323,-2.00497 1.34607,-3.51127 0.0609,-1.73495 0.64693,-0.90617 1.59907,2.26127 1.30797,4.35116 2.06601,5.08579 5.84144,5.66113 10.31204,1.57144 24.24349,-4.11342 27.73194,-11.31627 1.03579,-2.13868 2.38348,-3.87085 2.99487,-3.84927 0.61138,0.0216 1.04513,-2.8936 0.96388,-6.47817 -0.14552,-6.41989 -0.12297,-6.46131 1.50612,-2.76742 2.29801,5.21059 2.19789,1.57691 -0.10865,-3.94342 -1.66701,-3.98971 -1.66701,-4.31529 0,-2.93179 2.48714,2.06414 2.37252,0.69134 -0.29066,-3.48127 -2.05457,-3.21904 -2.05457,-3.30532 0,-1.67796 2.86499,2.26927 2.73819,0.75549 -0.3561,-4.25118 -3.38885,-5.48329 -7.27608,-7.82636 -16.55989,-9.98168 l -7.79309,-1.80923 6.75798,0.66975 c 10.72065,1.06247 16.83915,5.37309 20.68236,14.57119 4.41022,10.55515 1.20414,21.98998 -8.58031,30.6026 -11.06079,9.73609 -26.2365,11.96192 -38.36336,5.62677 z m -9.14857,-7.45628 c -2.32375,-2.30881 -4.47207,-9.90718 -4.46089,-15.77765 0.0156,-8.19155 4.5351,-18.10891 10.23306,-22.45496 5.55275,-4.23529 12.54367,-7.11169 16.90208,-6.95433 2.97775,0.10752 2.78464,0.28838 -1.34339,1.25821 -8.95121,2.10299 -18.13422,8.59483 -21.63123,15.29199 -1.01974,1.95292 -2.05899,7.01542 -2.30944,11.25 -0.4192,7.08777 -0.30554,7.50069 1.43118,5.19924 1.76491,-2.33881 1.83304,-2.20625 1.05662,2.05588 -0.49379,2.71065 -0.2363,5.6651 0.63576,7.29456 1.49766,2.7984 1.18502,4.5249 -0.51375,2.83706 z m 18.18195,-10.99209 c -9.73829,-6.58005 -16.41649,-12.90413 -16.37123,-15.50312 0.0222,-1.27614 1.43026,-0.4418 4.10544,2.43271 2.23939,2.40625 4.33354,4.46361 4.65368,4.57191 4.11444,1.39194 7.26317,3.52538 6.18579,4.19124 -0.77359,0.4781 0.80006,2.24722 3.71453,4.17593 2.78121,1.84051 5.05674,3.02923 5.05674,2.64158 0,-2.19522 -4.25557,-8.31383 -7.78772,-11.19709 -2.24801,-1.83503 -2.88233,-2.74095 -1.40961,-2.01317 5.08773,2.51424 12.43922,13.71172 10.28495,15.66562 -0.25444,0.23077 -4.0491,-2.00375 -8.43257,-4.96561 z m -2.75922,-4.67412 c -0.28646,-0.19454 -1.64583,-1.17892 -3.02083,-2.1875 -2.31251,-1.69626 -2.37134,-1.66973 -0.78444,0.35371 0.94355,1.20312 2.30293,2.1875 3.02083,2.1875 0.7179,0 1.0709,-0.15917 0.78444,-0.35371 z m -7.39583,-5.11823 c 0,-0.25957 -0.98438,-1.24395 -2.1875,-2.1875 -1.98257,-1.55484 -2.02678,-1.51063 -0.47194,0.47194 1.63296,2.08218 2.65944,2.74435 2.65944,1.71556 z m 42.74369,9.84694 c 0.0255,-2.0625 0.30562,-2.75492 0.62255,-1.53871 0.31693,1.21621 0.29609,2.90371 -0.0463,3.75 -0.34241,0.84629 -0.60172,-0.14879 -0.57624,-2.21129 z m -16.27552,-4.33478 c -0.90316,-2.04038 -6.10297,-7.40035 -11.55514,-11.91103 -10.01945,-8.2893 -14.03814,-12.85641 -5.04565,-5.73423 5.72213,4.53201 7.75137,5.01404 4.38885,1.04254 -2.36095,-2.78855 -2.35994,-2.79526 0.11877,-0.78811 1.375,1.11341 3.09492,1.80573 3.82205,1.53848 0.72712,-0.26724 2.69587,1.07178 4.375,2.97562 l 3.05295,3.46151 -3.45405,-3.04594 c -2.85104,-2.51418 -3.72395,-2.75495 -5,-1.37913 -0.93416,1.0072 -0.98366,1.35237 -0.12508,0.87221 0.78147,-0.43704 2.11597,0.0429 2.96555,1.06662 0.84958,1.02368 1.22014,1.86124 0.82345,1.86124 -0.39668,0 0.80007,1.53774 2.65945,3.41721 1.85937,1.87946 3.80255,3.28571 4.31818,3.125 0.51562,-0.16072 0.9375,1.39529 0.9375,3.45779 0,4.66241 -0.23402,4.66654 -2.28183,0.0402 z m -0.7628,-7.17381 c -0.67836,-1.7815 -0.53478,-1.92508 0.69974,-0.69974 0.85427,0.84791 1.23834,1.85655 0.85348,2.24141 -0.38486,0.38486 -1.08381,-0.30889 -1.55322,-1.54167 z m 8.66963,-6.59615 -5,-5.60474 4.6875,3.48086 c 6.40034,4.75277 5.93813,2.14183 -0.625,-3.53046 -4.97137,-4.29658 -5.04212,-4.4437 -1.10191,-2.29117 5.18108,2.83042 7.9759,6.83222 7.44273,10.65696 -0.37471,2.68804 -0.75803,2.49568 -5.40332,-2.71145 z"
         id="path3365"
         inkscape:connector-curvature="0" />
      <path
         style="fill:#e8e1dd"
         d="m 363.3075,557.15284 -6.78179,-3.57396 -0.28136,-6.85833 c -0.27551,-6.7158 -0.25724,-6.75551 0.87879,-1.91079 0.63808,2.72115 1.61457,5.2524 2.16998,5.625 0.5554,0.3726 1.70735,1.80245 2.55988,3.17745 1.55005,2.5 1.55005,2.5 0.74313,0 -0.4438,-1.375 -1.07458,-4.1875 -1.40171,-6.25 -0.51183,-3.22692 -0.34135,-3.08318 1.22221,1.03051 2.18449,5.74732 3.05682,6.77294 3.7942,4.4609 1.58422,-4.9673 1.81374,-5.24357 1.90478,-2.29282 0.18605,6.03045 2.82085,7.95215 10.59718,7.72909 3.87095,-0.11104 9.46659,-1.27612 12.43474,-2.58908 6.26521,-2.77139 13.09909,-8.9916 12.34946,-11.24048 -0.28439,-0.85319 0.23878,-1.39304 1.16261,-1.19968 1.24993,0.26161 1.66259,-1.39141 1.61286,-6.46065 -0.0645,-6.57168 -0.0113,-6.68202 1.50612,-3.125 0.86512,2.02796 1.59832,2.96602 1.62933,2.08456 0.031,-0.88146 -0.78749,-3.6223 -1.81888,-6.09077 -1.667,-3.98971 -1.667,-4.31529 0,-2.93179 2.51455,2.08688 2.37767,0.0362 -0.25258,-3.78416 -2.0038,-2.91045 -2.0038,-2.99062 0,-1.37507 3.28818,2.65106 2.52209,-0.17122 -1.58575,-5.84193 -2.5768,-3.55717 -5.15965,-5.52554 -8.4375,-6.43014 -13.98052,-3.85829 -13.92861,-3.83639 -7.24038,-3.05489 10.22389,1.19463 16.20595,5.54874 19.95681,14.52581 7.60927,18.21155 -8.0119,37.94468 -31.19034,39.40057 -7.80074,0.48998 -9.48573,0.16187 -15.53179,-3.02435 z m -11.29354,-11.79201 c -6.84459,-15.08593 0.50557,-32.51035 16.53996,-39.20995 2.51904,-1.05252 6.14501,-1.8757 8.05772,-1.8293 2.67497,0.0649 2.12331,0.44897 -2.3901,1.66405 -3.22726,0.86883 -6.74288,2.30599 -7.8125,3.19369 -1.06961,0.8877 -1.94475,1.15353 -1.94475,0.59074 0,-1.7348 -8.85185,7.37927 -10.82232,11.14291 -1.02246,1.95292 -2.06394,7.01542 -2.31439,11.25 -0.40355,6.82315 -0.25682,7.4311 1.2895,5.34282 1.58171,-2.13611 1.67852,-1.9476 1.0353,2.01605 -0.39281,2.4206 -0.0457,5.61282 0.77745,7.15099 0.81786,1.52817 1.17018,3.09532 0.78295,3.48256 -0.38724,0.38723 -1.82671,-1.77032 -3.19882,-4.79456 z m 20.10538,-6.80321 c -9.57705,-6.4711 -16.40505,-12.88433 -16.40505,-15.40851 0,-1.34896 0.82856,-1.06929 3.06969,1.03614 1.68833,1.5861 2.95395,3.51228 2.8125,4.28039 -0.14145,0.76811 0.58656,1.44263 1.61781,1.49892 3.26504,0.17823 8.89998,3.40741 7.47873,4.2858 -0.77359,0.4781 0.80006,2.24722 3.71453,4.17593 2.78121,1.84051 5.05674,3.02923 5.05674,2.64158 0,-2.19522 -4.25557,-8.31383 -7.78772,-11.19709 -2.24801,-1.83503 -2.88233,-2.74095 -1.40961,-2.01317 5.08773,2.51424 12.43922,13.71172 10.28495,15.66562 -0.25444,0.23077 -4.0491,-2.00375 -8.43257,-4.96561 z m -2.75922,-4.67412 c -0.28646,-0.19454 -1.64583,-1.17892 -3.02083,-2.1875 -2.31251,-1.69626 -2.37134,-1.66973 -0.78444,0.35371 0.94355,1.20312 2.30293,2.1875 3.02083,2.1875 0.7179,0 1.0709,-0.15917 0.78444,-0.35371 z m 35.30154,5.35371 c 0,-1.71875 0.28372,-2.42188 0.63048,-1.5625 0.34677,0.85937 0.34677,2.26562 0,3.125 -0.34676,0.85937 -0.63048,0.15625 -0.63048,-1.5625 z m -16.51341,-5.7484 c -0.95617,-1.78662 -6.11372,-6.89766 -11.46123,-11.35786 -5.3475,-4.4602 -9.72273,-8.40993 -9.72273,-8.77718 0,-0.36724 2.48529,1.36879 5.52287,3.85786 6.55304,5.36973 8.6153,5.88594 4.38252,1.09702 -2.04848,-2.31763 -2.22034,-2.77551 -0.53039,-1.41311 1.375,1.1085 3.09492,1.79679 3.82205,1.52954 0.72712,-0.26724 2.69587,1.07178 4.375,2.97562 l 3.05295,3.46151 -3.20556,-2.8125 c -3.97211,-3.48505 -6.11458,-3.70497 -3.04444,-0.3125 1.24436,1.375 1.8119,2.5 1.26121,2.5 -0.5507,0 0.62775,1.53297 2.61876,3.40661 1.99102,1.87364 4.0419,3.27989 4.55753,3.125 0.51562,-0.15489 0.9375,1.12464 0.9375,2.84339 0,3.93839 -0.4026,3.91903 -2.56604,-0.1234 z m 8.81604,-12.29982 c -4.1167,-4.63255 -3.30452,-5.12267 1.5625,-0.94291 1.23322,1.05907 2.1875,1.29127 2.1875,0.53227 0,-0.74048 -2.39063,-3.43825 -5.3125,-5.99505 -4.94629,-4.32827 -5.02225,-4.48577 -1.10191,-2.2849 5.20082,2.91972 7.97344,6.91341 7.44273,10.72052 -0.3815,2.73676 -0.64002,2.62693 -4.77832,-2.02993 z"
         id="path3363"
         inkscape:connector-curvature="0" />
      <path
         style="fill:#e5ddd9"
         d="m 366.51087,558.73272 c -23.76432,-8.84839 -22.00907,-43.91626 2.63838,-52.71207 2.57952,-0.92054 5.81504,-1.66815 7.19004,-1.66135 1.375,0.007 -0.80935,1.06943 -4.85411,2.36141 -7.71958,2.4658 -14.56088,7.92234 -17.87778,14.25911 -1.04148,1.98969 -2.1244,7.33344 -2.40649,11.875 -0.47959,7.72099 -0.39418,8.05439 1.31479,5.13239 1.80517,-3.08649 1.81908,-3.06945 1.12882,1.38234 -0.45917,2.96143 -0.005,5.74811 1.32304,8.125 l 2.0219,3.61766 -0.60595,-5 -0.60595,-5 1.27714,4.375 c 0.70242,2.40625 2.42805,5.78125 3.83472,7.5 1.83347,2.24023 2.34618,2.47278 1.8109,0.82137 -0.41068,-1.26699 -1.05338,-3.79824 -1.42822,-5.625 -0.58299,-2.84113 -0.40717,-2.72675 1.21599,0.79107 1.04363,2.26185 2.75144,4.96637 3.79512,6.01005 1.6968,1.6968 1.83368,1.46004 1.29357,-2.23745 l -0.60402,-4.13504 1.29684,4.12167 c 1.53055,4.86448 4.6356,6.29652 12.27303,5.66029 7.82466,-0.65183 15.66595,-4.44564 21.62149,-10.461 4.89459,-4.94375 5.07504,-5.40843 4.50873,-11.61041 -0.57455,-6.29223 -0.54507,-6.36285 1.13143,-2.71055 l 1.72135,3.75 -0.78934,-4.21888 c -0.54693,-2.9233 -0.36558,-3.95699 0.59055,-3.36607 1.66172,1.027 -0.40323,-4.98523 -2.74735,-7.99909 -1.30495,-1.67778 -1.21827,-1.7027 0.6973,-0.2004 3.33098,2.61233 2.61628,-0.12355 -1.52609,-5.84193 -2.5768,-3.55717 -5.15965,-5.52554 -8.4375,-6.43014 -13.98052,-3.85829 -13.92861,-3.83639 -7.24038,-3.05489 10.22389,1.19463 16.20595,5.54874 19.95681,14.52581 7.51094,17.97622 -8.07644,38.01399 -30.56534,39.29214 -5.08693,0.28911 -9.93043,-0.21046 -12.95342,-1.33604 z m 5.45342,-20.29256 c -10.1294,-7.1235 -16.25,-12.8829 -16.25,-15.29105 0,-1.34896 0.82856,-1.06929 3.06969,1.03614 1.68833,1.5861 2.95395,3.51228 2.8125,4.28039 -0.14145,0.76811 0.58656,1.41144 1.61781,1.42961 2.83628,0.05 5.14169,1.85143 4.23885,3.31225 -0.51752,0.83737 0.25104,0.99936 2.16711,0.45674 1.92138,-0.54411 2.39767,-0.44269 1.3498,0.28743 -1.2003,0.83631 -0.33424,1.9786 3.34731,4.41494 3.44643,2.28073 5.15526,2.82131 5.58306,1.76615 0.33908,-0.8363 0.66091,-0.25493 0.71519,1.29195 0.0543,1.54687 -0.0419,2.79379 -0.21382,2.77093 -0.17188,-0.0229 -3.96875,-2.61283 -8.4375,-5.75548 z m 1.44492,-6.34214 c -5.35349,-5.57394 -4.84718,-6.23083 0.85736,-1.11235 2.46109,2.20824 6.08164,7.26446 4.9292,6.88379 -0.19606,-0.0648 -2.80002,-2.66192 -5.78656,-5.77144 z m 14.80145,1.5074 c -0.9905,-1.85075 -6.17613,-7.01427 -11.52364,-11.47447 -5.3475,-4.4602 -9.72273,-8.40993 -9.72273,-8.77718 0,-0.36724 2.48529,1.36879 5.52287,3.85786 6.55304,5.36973 8.6153,5.88594 4.38252,1.09702 -2.04848,-2.31763 -2.22034,-2.77551 -0.53039,-1.41311 1.375,1.1085 3.09492,1.79679 3.82205,1.52954 0.72712,-0.26724 2.69587,1.07178 4.375,2.97562 l 3.05295,3.46151 -3.20556,-2.8125 c -3.97211,-3.48505 -6.11458,-3.70497 -3.04444,-0.3125 1.24436,1.375 1.77988,2.5 1.19005,2.5 -0.58983,0 1.07449,2.19863 3.69848,4.88585 2.624,2.68721 4.54879,5.55219 4.27732,6.36661 -0.27147,0.81441 -1.30399,-0.0335 -2.29449,-1.88425 z m 18.209,-6.5018 c -0.67836,-1.7815 -0.53478,-1.92508 0.69974,-0.69974 0.85427,0.84791 1.23834,1.85655 0.85348,2.24141 -0.38486,0.38486 -1.08381,-0.30889 -1.55322,-1.54167 z m -9.45537,-5.91463 c -4.1167,-4.63255 -3.30452,-5.12267 1.5625,-0.94291 1.23322,1.05907 2.1875,1.29127 2.1875,0.53227 0,-0.74048 -2.39063,-3.43825 -5.3125,-5.99505 -4.94629,-4.32827 -5.02225,-4.48577 -1.10191,-2.2849 5.20082,2.91972 7.97344,6.91341 7.44273,10.72052 -0.3815,2.73676 -0.64002,2.62693 -4.77832,-2.02993 z"
         id="path3361"
         inkscape:connector-curvature="0" />
      <path
         style="fill:#e2d9d5"
         d="m 366.49525,558.72735 c -10.42955,-3.88237 -17.65897,-15.05722 -16.70733,-25.82525 0.47309,-5.35304 0.49761,-5.308 0.72713,1.33511 0.17124,4.95642 0.57567,6.35175 1.44924,5 0.90767,-1.40452 1.21652,-0.75874 1.23086,2.57359 0.0105,2.44672 0.845,5.54047 1.85439,6.875 1.81098,2.39433 1.83641,2.39336 1.92392,-0.0736 0.0668,-1.88347 0.50857,-1.53515 1.79132,1.41244 1.84236,4.23352 5.53891,7.60446 4.0316,3.67649 -0.46351,-1.2079 -1.1599,-3.6908 -1.54752,-5.51756 -0.47343,-2.23117 0.10104,-1.62822 1.75017,1.83692 2.53308,5.32246 5.21526,8.04903 5.21526,5.30157 0,-0.85948 0.7988,-0.4708 1.77512,0.86373 2.3741,3.24517 13.24079,3.01723 21.06043,-0.44177 6.4075,-2.83434 13.85877,-9.3461 12.46101,-10.88983 -0.50685,-0.55979 -0.27738,-0.6496 0.50996,-0.19958 1.7571,1.00433 2.93717,-1.81664 2.96262,-7.08214 0.0146,-3.01669 0.30785,-3.51353 1.23086,-2.08527 2.08695,3.22932 1.52863,-2.05261 -0.70024,-6.62458 l -1.95024,-4.00042 2.59593,3.125 2.59593,3.125 -1.34299,-3.70904 c -0.73864,-2.03997 -2.01358,-4.57122 -2.83319,-5.625 -1.30495,-1.67778 -1.21827,-1.7027 0.6973,-0.2004 3.33098,2.61233 2.61628,-0.12355 -1.52609,-5.84193 -2.5768,-3.55717 -5.15965,-5.52554 -8.4375,-6.43014 -2.59815,-0.71703 -6.69266,-1.84658 -9.09891,-2.51011 -3.8536,-1.06263 -3.63014,-1.11866 1.875,-0.47008 10.31559,1.21531 16.18839,5.47144 19.94034,14.45111 7.40975,17.73404 -8.32164,38.03729 -30.44087,39.28761 -5.20953,0.29447 -10.03451,-0.19817 -13.09351,-1.33688 z m 0.56772,-7.71931 c 0.06,-1.45617 0.35618,-1.75237 0.75521,-0.75521 0.36109,0.90235 0.31668,1.98047 -0.0987,2.39584 -0.41536,0.41536 -0.7108,-0.32292 -0.65652,-1.64063 z m 2.32675,-14.58333 c -9.12837,-6.58341 -14.84384,-12.68575 -13.31419,-14.2154 0.45035,-0.45035 1.33845,0.54793 1.97357,2.21841 1.3583,3.5726 4.14748,6.11271 7.29055,6.63952 1.2373,0.20738 2.08601,1.07447 1.88602,1.92687 -0.2244,0.95645 0.39867,1.25729 1.62742,0.78577 1.09508,-0.42022 1.68981,-0.27662 1.32162,0.31911 -0.36818,0.59573 1.53078,2.53916 4.2199,4.31874 3.3989,2.24928 5.07724,2.77208 5.50581,1.71503 0.3482,-0.85879 0.65945,-0.56853 0.71519,0.66695 0.15024,3.33039 -1.35547,2.74358 -11.22589,-4.375 z m 5.15729,-3.77253 c -3.55995,-4.38742 -3.70032,-4.7568 -0.82272,-2.16497 2.99042,2.69345 6.54047,7.54504 5.47148,7.47747 -0.19606,-0.0124 -2.28801,-2.40302 -4.64876,-5.3125 z m 14.37265,1.95144 c -0.67836,-1.7815 -0.53478,-1.92508 0.69974,-0.69974 0.85427,0.84791 1.23834,1.85655 0.85348,2.24141 -0.38486,0.38486 -1.08381,-0.30889 -1.55322,-1.54167 z m -10.08037,-10.49745 c -10.67266,-9.13416 -14.652,-13.30527 -6.66463,-6.9858 5.84747,4.62641 8.76652,6.02754 6.25641,3.00305 -2.75884,-3.3242 3.24409,-1.98144 6.21039,1.38917 l 2.94783,3.34962 -3.20556,-2.8125 c -3.97211,-3.48505 -6.11458,-3.70497 -3.04444,-0.3125 1.24436,1.375 1.7888,2.5 1.20987,2.5 -0.57893,0 0.56413,1.6875 2.54013,3.75 5.40017,5.63656 3.47084,4.43852 -6.25,-3.88104 z m -28.125,1.2462 c 0,-1.03164 1.64385,-4.46779 3.653,-7.6359 4.13604,-6.52185 11.96562,-11.6664 19.472,-12.79439 4.36754,-0.65631 4.11962,-0.45693 -1.95991,1.5762 -9.49535,3.17546 -14.36279,7.07935 -18.04853,14.47568 -1.71411,3.43976 -3.11656,5.41004 -3.11656,4.37841 z m 46.25,-4.16338 c -4.1167,-4.63255 -3.30452,-5.12267 1.5625,-0.94291 1.23322,1.05907 2.1875,1.29127 2.1875,0.53227 0,-0.74048 -2.39063,-3.43825 -5.3125,-5.99505 -4.75357,-4.15963 -4.87945,-4.40121 -1.19644,-2.29626 5.03556,2.87799 8.04116,7.22698 7.52251,10.88479 -0.3563,2.51279 -0.75192,2.3315 -4.76357,-2.18284 z"
         id="path3359"
         inkscape:connector-curvature="0" />
      <path
         style="fill:#dcd1cc"
         d="m 366.36324,558.56629 c -10.51351,-4.01016 -17.52905,-14.87258 -16.57532,-25.66419 0.47309,-5.35304 0.49761,-5.308 0.72713,1.33511 0.17124,4.95642 0.57567,6.35175 1.44924,5 0.9168,-1.41864 1.21638,-0.86622 1.23086,2.26968 0.0253,5.47917 2.34712,10.014 3.88436,7.58669 0.89462,-1.41261 1.10002,-1.3643 1.11564,0.2624 0.0105,1.09657 1.04781,2.92469 2.30507,4.0625 2.60004,2.353 5.25842,2.86308 2.96407,0.56873 -0.825,-0.825 -1.5,-2.02586 -1.5,-2.66857 0,-0.64272 1.20312,0.36095 2.67361,2.23036 2.05362,2.61076 2.91877,3.01218 3.73086,1.73108 0.82493,-1.30137 1.06145,-1.21657 1.07639,0.38589 0.0255,2.73545 2.20148,3.42479 9.53042,3.01919 13.72929,-0.7598 27.89668,-11.09767 28.07658,-20.48733 0.0734,-3.82834 0.28133,-4.17276 1.25946,-2.08562 0.97204,2.07415 1.09365,1.86122 0.71393,-1.25 -0.25172,-2.0625 -0.89415,-4.875 -1.42763,-6.25 -0.96995,-2.5 -0.96995,-2.5 1.03346,0 2.90398,3.62379 2.52327,0.73768 -0.57259,-4.34074 -1.86355,-3.05695 -2.04701,-3.84349 -0.62032,-2.65944 2.32656,1.93088 2.59602,1.02624 0.73185,-2.457 -0.71169,-1.3298 -0.96424,-2.41782 -0.56122,-2.41782 1.49397,0 4.3548,8.82514 4.34299,13.39735 -0.0165,6.37266 -4.93101,16.52737 -10.12167,20.91394 -9.56071,8.07964 -25.26634,11.40868 -35.46717,7.51779 z m -5.55027,-11.30825 c 0.06,-1.45617 0.35618,-1.75237 0.75521,-0.75521 0.36109,0.90235 0.31668,1.98047 -0.0987,2.39584 -0.41537,0.41536 -0.7108,-0.32292 -0.65653,-1.64063 z m 9.64142,-10.00402 c -8.45209,-5.70122 -14.74405,-11.96748 -14.73543,-14.67522 0.003,-0.80662 1.03641,0.22091 2.29743,2.28341 3.0412,4.97415 5.99832,7.3004 7.83628,6.16448 0.93783,-0.57961 1.17039,-0.39584 0.62198,0.4915 -1.21265,1.96211 12.03002,10.44947 13.283,8.5132 0.58331,-0.90142 0.92534,-0.62111 0.9375,0.76832 0.0271,3.09792 -0.83316,2.80007 -10.24076,-3.54569 z m 18.46527,-2.6504 c -0.67836,-1.7815 -0.53478,-1.92508 0.69974,-0.69974 0.85427,0.84791 1.23834,1.85655 0.85348,2.24141 -0.38486,0.38486 -1.08381,-0.30889 -1.55322,-1.54167 z m -14.54998,-2.55391 -3.03039,-3.4375 3.4375,3.03039 c 3.21286,2.83236 4.01074,3.84461 3.03039,3.84461 -0.22391,0 -1.77078,-1.54688 -3.4375,-3.4375 z m 6.29627,-6.92373 c -3.80784,-3.58257 -5.74034,-5.5294 -4.29444,-4.32627 1.4459,1.20312 3.08341,2.1875 3.6389,2.1875 0.55549,0 0.23799,-0.98438 -0.70556,-2.1875 -1.55997,-1.9891 -1.51442,-2.02963 0.50215,-0.44687 1.21974,0.95734 1.91297,2.04536 1.54052,2.41781 -0.37246,0.37245 1.13055,2.5423 3.34,4.82187 6.09919,6.29277 3.77036,4.86443 -4.02157,-2.46654 z m -29.95166,0.40398 c 0,-3.03508 5.90683,-11.845 9.92448,-14.80215 4.20793,-3.09722 12.85731,-6.53306 16.17018,-6.42338 1.11669,0.037 -1.10162,1.06941 -4.92957,2.29431 -9.42241,3.01506 -14.33888,6.93092 -18.04853,14.37522 -1.71411,3.43976 -3.11656,5.48996 -3.11656,4.556 z m 50.17023,0.41807 c -0.0936,-0.7778 -1.99836,-3.26101 -4.23273,-5.51825 l -4.0625,-4.10408 4.0625,2.79087 c 4.9653,3.41109 5.2495,2.14705 0.625,-2.77981 -2.79003,-2.97244 -2.92198,-3.3496 -0.70056,-2.0024 3.65566,2.21701 5.73792,6.35653 5.04467,10.0288 -0.31138,1.64948 -0.64276,2.36267 -0.73638,1.58487 z m -17.82967,-5.14832 c -1.55484,-1.98257 -1.51063,-2.02678 0.47194,-0.47194 2.08218,1.63296 2.74435,2.65944 1.71556,2.65944 -0.25957,0 -1.24395,-0.98438 -2.1875,-2.1875 z m -13.75,-5 c -1.55484,-1.98257 -1.51063,-2.02678 0.47194,-0.47194 2.08218,1.63296 2.74435,2.65944 1.71556,2.65944 -0.25957,0 -1.24395,-0.98438 -2.1875,-2.1875 z m 35.72182,-1.66382 c -0.45933,-0.74322 -2.60191,-2.42862 -4.76127,-3.74532 -2.15936,-1.31671 -3.23186,-2.39612 -2.38333,-2.39869 1.59968,-0.005 10.37203,7.39384 8.84349,7.45869 -0.47505,0.0202 -1.23955,-0.57145 -1.69889,-1.31468 z m -13.37488,-6.97653 c 0.85937,-0.34677 2.26562,-0.34677 3.125,0 0.85937,0.34676 0.15625,0.63048 -1.5625,0.63048 -1.71875,0 -2.42188,-0.28372 -1.5625,-0.63048 z m -6.25,-1.25 c 0.85937,-0.34677 2.26562,-0.34677 3.125,0 0.85937,0.34676 0.15625,0.63048 -1.5625,0.63048 -1.71875,0 -2.42188,-0.28372 -1.5625,-0.63048 z"
         id="path3357"
         inkscape:connector-curvature="0" />
      <path
         style="fill:#d7cac3"
         d="m 367.87486,558.82865 c -9.53389,-2.96555 -18.73585,-13.3536 -15.99509,-18.05681 1.06046,-1.8198 1.26448,-1.60578 1.29651,1.36005 0.0209,1.93582 0.66097,4.68369 1.42237,6.10637 1.11036,2.07473 1.60138,2.24402 2.48086,0.85532 0.89462,-1.41261 1.10002,-1.3643 1.11564,0.26239 0.019,1.97645 3.74861,6.13124 5.50384,6.13124 0.50206,0 0.55668,-0.70313 0.12137,-1.5625 -0.4353,-0.85938 0.1162,-0.44024 1.22559,0.93141 1.73248,2.14207 2.18374,2.23024 3.19855,0.625 1.02133,-1.61554 1.1841,-1.59048 1.20065,0.18485 0.0386,4.14074 8.51538,4.77159 18.9281,1.40866 4.4379,-1.43329 8.70177,-4.09584 12.64355,-7.89521 5.05279,-4.87024 5.9607,-6.47234 6.03534,-10.64991 0.0725,-4.05566 0.29551,-4.47923 1.27289,-2.4173 0.8895,1.87653 1.03229,1.25306 0.57257,-2.5 -0.4247,-3.46714 -0.24597,-4.42518 0.58297,-3.125 2.59506,4.07026 1.2416,-1.84674 -1.42179,-6.21574 -1.48051,-2.42861 -1.84076,-3.67231 -0.81781,-2.82334 1.00559,0.83456 2.16219,1.18354 2.57022,0.77551 1.28792,-1.28792 2.43288,7.88504 1.52633,12.22835 -3.76853,18.05521 -25.17931,30.06374 -43.46266,24.37666 z m 9.72328,-17.07712 c -0.43793,-0.70858 0.0638,-0.91814 1.17623,-0.49127 2.16552,0.83099 2.56173,1.72695 0.76369,1.72695 -0.64692,0 -1.51989,-0.55606 -1.93992,-1.23568 z m -27.79339,-7.51432 c 0,-3.09375 0.24377,-4.35938 0.54171,-2.8125 0.29794,1.54687 0.29794,4.07812 0,5.625 -0.29794,1.54687 -0.54171,0.28125 -0.54171,-2.8125 z m 39.11491,0.36641 c -0.67836,-1.7815 -0.53478,-1.92508 0.69974,-0.69974 0.85427,0.84791 1.23834,1.85655 0.85348,2.24141 -0.38486,0.38486 -1.08381,-0.30889 -1.55322,-1.54167 z m -23.36481,-1.30391 c -1.55484,-1.98257 -1.51063,-2.02678 0.47194,-0.47194 1.20312,0.94355 2.1875,1.92793 2.1875,2.1875 0,1.02879 -1.02648,0.36662 -2.65944,-1.71556 z m 8.16567,-1.875 -2.38123,-2.8125 2.8125,2.38123 c 2.64306,2.23778 3.38155,3.24377 2.38123,3.24377 -0.23719,0 -1.50282,-1.26563 -2.8125,-2.8125 z m -14.35084,-3.125 -3.03039,-3.4375 3.4375,3.03039 c 3.21286,2.83236 4.01074,3.84461 3.03039,3.84461 -0.22391,0 -1.77078,-1.54688 -3.4375,-3.4375 z m 20.71961,-3.6387 c -6.96518,-6.48109 -7.04522,-6.61406 -1.12251,-1.86477 5.8037,4.65386 10.26088,9.015 9.08807,8.89224 -0.25606,-0.0268 -3.84056,-3.18916 -7.96556,-7.02747 z m 20.17297,0.2012 c -0.39573,-1.03125 -0.17466,-1.875 0.49126,-1.875 0.66592,0 1.21077,0.84375 1.21077,1.875 0,1.03125 -0.22107,1.875 -0.49126,1.875 -0.2702,0 -0.81505,-0.84375 -1.21077,-1.875 z m -17.20741,-4.0625 c -1.55484,-1.98257 -1.51063,-2.02678 0.47194,-0.47194 2.08218,1.63296 2.74435,2.65944 1.71556,2.65944 -0.25957,0 -1.24395,-0.98438 -2.1875,-2.1875 z m 17.11481,-1.19609 c -0.67836,-1.7815 -0.53478,-1.92508 0.69974,-0.69974 0.85427,0.84791 1.23834,1.85655 0.85348,2.24141 -0.38486,0.38486 -1.08381,-0.30889 -1.55322,-1.54167 z m 7.5,-1.25 c -0.67836,-1.7815 -0.53478,-1.92508 0.69974,-0.69974 0.85427,0.84791 1.23834,1.85655 0.85348,2.24141 -0.38486,0.38486 -1.08381,-0.30889 -1.55322,-1.54167 z m -38.36481,-2.55391 c -1.55484,-1.98257 -1.51063,-2.02678 0.47194,-0.47194 2.08218,1.63296 2.74435,2.65944 1.71556,2.65944 -0.25957,0 -1.24395,-0.98438 -2.1875,-2.1875 z m 35.72182,-1.66382 c -0.45933,-0.74322 -2.60191,-2.42862 -4.76127,-3.74532 -2.15936,-1.31671 -3.23186,-2.39612 -2.38333,-2.39869 1.59968,-0.005 10.37203,7.39384 8.84349,7.45869 -0.47505,0.0202 -1.23955,-0.57145 -1.69889,-1.31468 z m -39.64571,-6.30379 c 0.84791,-0.85427 1.85655,-1.23834 2.24141,-0.85348 0.38486,0.38486 -0.30889,1.08381 -1.54167,1.55322 -1.7815,0.67836 -1.92508,0.53478 -0.69974,-0.69974 z m 27.59895,-0.69878 c 0.90235,-0.36109 1.98047,-0.31668 2.39584,0.0987 0.41536,0.41537 -0.32292,0.7108 -1.64063,0.65653 -1.45617,-0.06 -1.75237,-0.35618 -0.75521,-0.75521 z"
         id="path3355"
         inkscape:connector-curvature="0" />
      <path
         style="fill:#d1c2bb"
         d="m 375.41636,559.60313 c 1.55489,-0.29899 3.80489,-0.28764 5,0.0252 1.19511,0.31287 -0.0771,0.55749 -2.82707,0.54362 -2.75,-0.0139 -3.72782,-0.26986 -2.17293,-0.56885 z m -9.66587,-1.5671 c -2.97576,-1.88192 -0.94594,-2.27948 2.4638,-0.48255 1.72243,0.90772 2.28346,1.64655 1.25,1.64616 -1.03125,-3.9e-4 -2.70246,-0.52401 -3.7138,-1.16361 z m 17.56797,0.75202 c 0.28645,-0.24703 2.20833,-0.82662 4.27083,-1.28796 2.73865,-0.6126 3.24432,-0.49663 1.875,0.43001 -1.68796,1.14226 -7.40019,1.93968 -6.14583,0.85795 z m -25.39695,-5.90721 c -2.24522,-2.121 -3.42714,-3.52375 -2.62648,-3.11721 0.80065,0.40653 1.74062,0.0325 2.08881,-0.83113 0.38951,-0.96614 0.67105,-0.74741 0.73177,0.56852 0.0543,1.17634 1.32975,3.28572 2.83438,4.6875 1.50464,1.40178 2.35726,2.54869 1.89472,2.54869 -0.46254,0 -2.67798,-1.73537 -4.9232,-3.85637 z m 36.57715,1.79474 c 5.51501,-3.67882 12.46563,-10.89509 12.46563,-12.94206 0,-1.09797 0.49427,-2.53068 1.09839,-3.18381 2.12174,-2.29389 2.66838,-9.87104 0.94988,-13.16667 -1.33928,-2.56839 -1.35792,-3.22916 -0.0911,-3.22916 2.04128,0 3.43953,7.37025 2.37157,12.50063 -1.33079,6.39296 -6.40153,14.05224 -12.05623,18.21076 -2.89577,2.12957 -5.84187,3.87194 -6.54691,3.87194 -0.70503,0 0.1089,-0.92773 1.80876,-2.06163 z m -42.14134,-8.87587 c -0.42818,-1.20313 -0.93591,-2.49561 -1.12829,-2.87218 -0.19238,-0.37658 0.10677,-1.4234 0.66478,-2.32628 0.66736,-1.07981 1.1949,-0.0969 1.54152,2.87218 0.57111,4.89197 0.15481,5.79032 -1.07801,2.32628 z m 25.24082,-4.04818 c -0.43793,-0.70858 0.0638,-0.91814 1.17623,-0.49127 2.16552,0.83099 2.56173,1.72695 0.76369,1.72695 -0.64692,0 -1.51989,-0.55606 -1.93992,-1.23568 z m -27.79339,-7.51432 c 0,-3.09375 0.24377,-4.35938 0.54171,-2.8125 0.29794,1.54687 0.29794,4.07812 0,5.625 -0.29794,1.54687 -0.54171,0.28125 -0.54171,-2.8125 z m 9.56493,-5.9375 -3.03039,-3.4375 3.4375,3.03039 c 3.21286,2.83236 4.01074,3.84461 3.03039,3.84461 -0.22391,0 -1.77078,-1.54688 -3.4375,-3.4375 z m 24.39097,-0.625 -3.67136,-4.0625 4.0625,3.67136 c 2.23437,2.01925 4.0625,3.84738 4.0625,4.0625 0,0.9657 -1.03141,0.11545 -4.45364,-3.67136 z m 16.32864,-3.4375 c -0.4249,-0.6875 -0.17685,-1.25 0.55123,-1.25 0.72807,0 1.32377,0.5625 1.32377,1.25 0,0.6875 -0.24805,1.25 -0.55123,1.25 -0.30317,0 -0.89887,-0.5625 -1.32377,-1.25 z m -25.11877,-4.0625 -2.38123,-2.8125 2.8125,2.38123 c 2.64306,2.23778 3.38155,3.24377 2.38123,3.24377 -0.23719,0 -1.50282,-1.26563 -2.8125,-2.8125 z m 28.75,-7.5 -2.38123,-2.8125 2.8125,2.38123 c 2.64306,2.23778 3.38155,3.24377 2.38123,3.24377 -0.23719,0 -1.50282,-1.26563 -2.8125,-2.8125 z"
         id="path3353"
         inkscape:connector-curvature="0" />
      <path
         style="fill:#ccbcb4"
         d="m 374.77679,559.62555 c 1.20312,-0.31441 3.17187,-0.31441 4.375,0 1.20312,0.31441 0.21875,0.57166 -2.1875,0.57166 -2.40625,0 -3.39063,-0.25725 -2.1875,-0.57166 z m -9.0263,-1.58952 c -2.97576,-1.88192 -0.94594,-2.27948 2.4638,-0.48255 1.72243,0.90772 2.28346,1.64655 1.25,1.64616 -1.03125,-3.9e-4 -2.70246,-0.52401 -3.7138,-1.16361 z m -8.59048,-5.46549 c -2.03235,-2.16334 -2.26426,-2.91666 -0.89788,-2.91666 1.0132,0 1.55248,0.46875 1.1984,1.04166 -0.35408,0.57292 -0.10827,1.04167 0.54625,1.04167 0.65452,0 1.51382,0.84375 1.90954,1.875 0.98557,2.56836 0.44222,2.36301 -2.75631,-1.04167 z m 44.49178,-3.53391 c 2.92187,-3.03548 5.3125,-6.44893 5.3125,-7.58546 0,-1.13653 0.48861,-2.3684 1.08581,-2.73748 2.17532,-1.34443 2.82535,-10.91934 0.93695,-13.80139 -1.48754,-2.27028 -1.50692,-2.75842 -0.10952,-2.75842 0.93383,0 1.63685,0.32812 1.56226,0.72916 -0.0746,0.40104 0.27994,2.20051 0.78783,3.99881 1.96156,6.94542 -4.42462,21.05284 -11.57974,25.5803 -2.31438,1.46443 -1.71221,0.43508 2.00391,-3.42552 z m -50.04936,-4.79817 c -0.35939,-1.37432 -0.14375,-2.81377 0.47921,-3.19878 0.62296,-0.38501 1.13265,0.73944 1.13265,2.49876 0,3.83005 -0.71243,4.13945 -1.61186,0.70002 z m -1.84814,-10.00125 c 0,-2.40625 0.25725,-3.39063 0.57166,-2.1875 0.31441,1.20312 0.31441,3.17187 0,4.375 -0.31441,1.20312 -0.57166,0.21875 -0.57166,-2.1875 z m 9.55056,-5.9375 c -1.55484,-1.98257 -1.51063,-2.02678 0.47194,-0.47194 1.20312,0.94355 2.1875,1.92793 2.1875,2.1875 0,1.02879 -1.02648,0.36662 -2.65944,-1.71556 z"
         id="path3351"
         inkscape:connector-curvature="0" />
      <path
         style="fill:#c7b5ac"
         d="m 375.40179,559.65936 c 0.85937,-0.34677 2.26562,-0.34677 3.125,0 0.85937,0.34676 0.15625,0.63048 -1.5625,0.63048 -1.71875,0 -2.42188,-0.28372 -1.5625,-0.63048 z m -17.8125,-6.67215 c -0.4249,-0.6875 -0.17685,-1.25 0.55123,-1.25 0.72807,0 1.32377,0.5625 1.32377,1.25 0,0.6875 -0.24805,1.25 -0.55123,1.25 -0.30317,0 -0.89887,-0.5625 -1.32377,-1.25 z m -5.42763,-10 c 0,-1.71875 0.28372,-2.42188 0.63048,-1.5625 0.34677,0.85937 0.34677,2.26562 0,3.125 -0.34676,0.85937 -0.63048,0.15625 -0.63048,-1.5625 z m 55.36783,-1.98244 c 0.54453,-1.31591 1.5379,-4.82291 2.20749,-7.79333 0.66958,-2.97043 1.45632,-5.16189 1.74829,-4.86991 0.94616,0.94615 -2.18108,13.34708 -3.58457,14.21449 -0.91532,0.5657 -1.03692,0.0575 -0.37121,-1.55125 z m 1.39017,-16.40115 c -0.67836,-1.7815 -0.53478,-1.92508 0.69974,-0.69974 0.85427,0.84791 1.23834,1.85655 0.85348,2.24141 -0.38486,0.38486 -1.08381,-0.30889 -1.55322,-1.54167 z"
         id="path3349"
         inkscape:connector-curvature="0" />
    </g>
  </g>
</svg>
