<?xml version="1.0" encoding="UTF-8" standalone="no"?>
<!-- Created with Inkscape (http://www.inkscape.org/) -->

<svg
   xmlns:dc="http://purl.org/dc/elements/1.1/"
   xmlns:cc="http://creativecommons.org/ns#"
   xmlns:rdf="http://www.w3.org/1999/02/22-rdf-syntax-ns#"
   xmlns:svg="http://www.w3.org/2000/svg"
   xmlns="http://www.w3.org/2000/svg"
   xmlns:sodipodi="http://sodipodi.sourceforge.net/DTD/sodipodi-0.dtd"
   xmlns:inkscape="http://www.inkscape.org/namespaces/inkscape"
   id="svg2"
   version="1.1"
   inkscape:version="0.91 r13725"
   width="132.43579"
   height="132.43579"
   viewBox="0 0 132.43579 132.43579"
   sodipodi:docname="icon-border-bread.svg">
  <metadata
     id="metadata8">
    <rdf:RDF>
      <cc:Work
         rdf:about="">
        <dc:format>image/svg+xml</dc:format>
        <dc:type
           rdf:resource="http://purl.org/dc/dcmitype/StillImage" />
        <dc:title></dc:title>
      </cc:Work>
    </rdf:RDF>
  </metadata>
  <defs
     id="defs6" />
  <sodipodi:namedview
     pagecolor="#ffffff"
     bordercolor="#666666"
     borderopacity="1"
     objecttolerance="10"
     gridtolerance="10"
     guidetolerance="10"
     inkscape:pageopacity="0"
     inkscape:pageshadow="2"
     inkscape:window-width="1116"
     inkscape:window-height="707"
     id="namedview4"
     showgrid="false"
     fit-margin-top="0"
     fit-margin-left="0"
     fit-margin-right="0"
     fit-margin-bottom="0"
     inkscape:zoom="1.7811321"
     inkscape:cx="168.15148"
     inkscape:cy="66.249999"
     inkscape:window-x="359"
     inkscape:window-y="84"
     inkscape:window-maximized="0"
     inkscape:current-layer="svg2" />
  <g
     id="g3338"
     transform="translate(-65.68856,-1.1870909)">
    <path
       style="fill:#ece6e3"
       d="m 123.29397,130.23136 c -3.59655,-2.83355 -5.88169,-3.47177 -14.49631,-4.04864 -11.272889,-0.75489 -13.553094,-1.95508 -15.621479,-8.22235 -1.45207,-4.39981 -8.845855,-11.83749 -11.767636,-11.83749 -0.931164,0 -3.014181,-1.06981 -4.628928,-2.37735 -2.52955,-2.0483 -3.032366,-3.83007 -3.632846,-12.873247 -0.588505,-8.862835 -1.222938,-11.185515 -4.077577,-14.928139 -4.421899,-5.797409 -4.421899,-11.345116 0,-17.142525 2.854639,-3.742624 3.489072,-6.065304 4.077577,-14.928139 0.60048,-9.043177 1.103296,-10.824944 3.632846,-12.873249 1.614747,-1.307542 3.697764,-2.37735 4.628928,-2.37735 2.921781,0 10.315566,-7.437676 11.767636,-11.837491 2.066715,-6.262208 4.351131,-7.4676203 15.576809,-8.2193746 8.5291,-0.571171 10.9016,-1.2306824 14.61431,-4.0625 5.79741,-4.42189929 11.34511,-4.42189929 17.14252,0 3.71271,2.8318176 6.08521,3.491329 14.61431,4.0625 11.22568,0.7517542 13.51009,1.9571666 15.57681,8.2193746 1.45207,4.399815 8.84585,11.837491 11.76763,11.837491 0.93117,0 3.01419,1.069808 4.62893,2.37735 2.52955,2.048305 3.03237,3.830072 3.63285,12.873249 0.58851,8.862835 1.22293,11.185515 4.07757,14.928139 4.4219,5.797409 4.4219,11.345116 0,17.142525 -2.85464,3.742624 -3.48906,6.065304 -4.07757,14.928139 -0.60048,9.043177 -1.1033,10.824947 -3.63285,12.873247 -1.61474,1.30754 -3.69776,2.37735 -4.62893,2.37735 -2.92178,0 -10.31556,7.43768 -11.76763,11.83749 -2.06672,6.26221 -4.35113,7.46762 -15.57681,8.21937 -8.5291,0.57118 -10.9016,1.23069 -14.61431,4.0625 -5.82257,4.4411 -11.56967,4.43747 -17.21585,-0.0113 z m 14.85341,-0.95309 c 5.79523,-4.27559 11.92263,-6.07382 17.60187,-5.16567 6.85374,1.09596 10.42056,-1.02479 13.61632,-8.09595 2.80884,-6.215 6.36253,-9.47896 13.34834,-12.26001 4.96857,-1.97799 6.87592,-6.181221 5.93152,-13.071342 -0.74968,-5.469484 1.11028,-10.948117 6.7474,-19.874917 2.06097,-3.263688 2.06097,-3.611311 0,-6.875 -5.63712,-8.9268 -7.49708,-14.405432 -6.7474,-19.874916 1.02942,-7.510447 -0.8918,-10.873574 -8.0631,-14.114597 -6.21501,-2.808833 -9.47896,-6.362527 -12.26001,-13.348337 -1.97799,-4.968572 -6.18122,-6.8759161 -13.07134,-5.93152 -5.46949,0.749676 -10.94812,-1.1102847 -19.87492,-6.7474068 -3.26369,-2.0609637 -3.61131,-2.0609637 -6.875,0 -8.9268,5.6371221 -14.40543,7.4970828 -19.87492,6.7474068 -6.89012,-0.9443961 -11.093349,0.962948 -13.071339,5.93152 -2.781054,6.98581 -6.045005,10.539504 -12.260014,13.348337 -7.171301,3.241023 -9.092519,6.60415 -8.063097,14.114597 0.749676,5.469484 -1.110285,10.948116 -6.747407,19.874916 -2.060964,3.263689 -2.060964,3.611312 0,6.875 5.637122,8.9268 7.497083,14.405433 6.747407,19.874917 -0.944397,6.890121 0.962948,11.093352 5.93152,13.071342 6.98581,2.78105 10.539504,6.04501 13.348336,12.26001 3.195764,7.07116 6.762584,9.19191 13.616324,8.09595 5.67923,-0.90815 11.80664,0.89008 17.60187,5.16567 2.30699,1.70204 5.10095,3.09461 6.20882,3.09461 1.10786,0 3.90183,-1.39257 6.20882,-3.09461 z"
       id="path3350"
       inkscape:connector-curvature="0" />
    <path
       style="fill:#e8e1dd"
       d="m 124.42058,130.48462 c -5.48491,-4.04664 -11.11296,-5.55748 -17.50737,-4.69981 -6.935236,0.93021 -10.341926,-1.19481 -13.650079,-8.51465 -2.809755,-6.21705 -6.363551,-9.48231 -13.344962,-12.26147 -5.136621,-2.04478 -7.249545,-6.213564 -6.391541,-12.610459 0.85767,-6.394408 -0.653165,-12.02246 -4.699805,-17.507373 -1.726045,-2.339522 -3.138263,-5.722612 -3.138263,-7.517977 0,-1.795365 1.412218,-5.178455 3.138263,-7.517976 4.04664,-5.484914 5.557475,-11.112965 4.699805,-17.507374 -0.930211,-6.935236 1.194816,-10.341926 8.514654,-13.650078 6.217048,-2.809755 9.482307,-6.363552 12.261465,-13.344963 2.044785,-5.136621 6.213563,-7.2495445 12.610463,-6.3915407 6.39441,0.8576701 12.02246,-0.6531644 17.50737,-4.6998053 5.38527,-3.97312235 9.65069,-3.97312235 15.03596,0 5.48491,4.0466409 11.11296,5.5574754 17.50737,4.6998053 6.39689,-0.8580038 10.56568,1.2549197 12.61046,6.3915407 2.77916,6.981411 6.04442,10.535208 12.26147,13.344963 7.31984,3.308152 9.44486,6.714842 8.51465,13.650078 -0.85767,6.394409 0.65317,12.02246 4.69981,17.507374 3.97312,5.385264 3.97312,9.650689 0,15.035953 -4.04664,5.484913 -5.55748,11.112965 -4.69981,17.507373 0.93021,6.935237 -1.19481,10.341929 -8.51465,13.650079 -6.21705,2.80976 -9.48231,6.36355 -12.26147,13.34496 -2.04478,5.13662 -6.21357,7.24955 -12.61046,6.39154 -6.39441,-0.85767 -12.02246,0.65317 -17.50737,4.69981 -2.33953,1.72605 -5.72262,3.13826 -7.51798,3.13826 -1.79537,0 -5.17846,-1.41221 -7.51798,-3.13826 z m 15.72362,-2.17424 c 5.45727,-3.61416 7.10185,-4.0625 14.9018,-4.0625 4.82216,0 9.45467,-0.44517 10.29447,-0.98927 0.8398,-0.5441 2.59152,-3.3566 3.89271,-6.25 2.81512,-6.25987 6.71137,-10.07569 12.94946,-12.68213 2.52173,-1.05365 5.04531,-2.62737 5.60794,-3.49716 0.56264,-0.869791 1.02298,-5.526839 1.02298,-10.348994 0,-7.799958 0.44834,-9.444536 4.0625,-14.901805 2.23437,-3.373838 4.0625,-7.066376 4.0625,-8.20564 0,-1.139263 -1.82813,-4.831801 -4.0625,-8.20564 -3.61416,-5.457268 -4.0625,-7.101846 -4.0625,-14.901805 0,-4.822155 -0.44517,-9.454663 -0.98928,-10.294465 -0.5441,-0.8398 -3.3566,-2.591517 -6.25,-3.892705 -6.25987,-2.815121 -10.07568,-6.711372 -12.68212,-12.949467 -1.05365,-2.521731 -2.62737,-5.045304 -3.49716,-5.607941 -0.86979,-0.562637 -5.52684,-1.022977 -10.349,-1.022977 -7.79995,0 -9.44453,-0.448341 -14.9018,-4.0624996 -3.37384,-2.234375 -7.06638,-4.0625 -8.20564,-4.0625 -1.13926,0 -4.8318,1.828125 -8.20564,4.0625 -5.45727,3.6141586 -7.10185,4.0624996 -14.90181,4.0624996 -4.82215,0 -9.479198,0.46034 -10.348989,1.022977 -0.869792,0.562637 -2.443514,3.08621 -3.49716,5.607941 -2.606442,6.238095 -6.422256,10.134346 -12.682126,12.949467 -2.893399,1.301188 -5.705899,3.052905 -6.25,3.892705 -0.544101,0.839802 -0.989275,5.47231 -0.989275,10.294465 0,7.799959 -0.448341,9.444537 -4.0625,14.901805 -2.234375,3.373839 -4.0625,7.066377 -4.0625,8.20564 0,1.139264 1.828125,4.831802 4.0625,8.20564 3.614159,5.457269 4.0625,7.101847 4.0625,14.901805 0,4.822155 0.460339,9.479203 1.022976,10.348994 0.562637,0.86979 3.08621,2.44351 5.607941,3.49716 6.238095,2.60644 10.134347,6.42226 12.949468,12.68213 1.301187,2.8934 3.052905,5.7059 3.892705,6.25 0.839801,0.5441 5.47231,0.98927 10.29446,0.98927 7.79996,0 9.44454,0.44834 14.90181,4.0625 3.37384,2.23438 7.06638,4.0625 8.20564,4.0625 1.13926,0 4.8318,-1.82812 8.20564,-4.0625 z"
       id="path3348"
       inkscape:connector-curvature="0" />
    <path
       style="fill:#e3dad6"
       d="m 125.10438,130.93167 c -5.20531,-4.0945 -11.7727,-5.89293 -18.85148,-5.16233 -5.94946,0.61404 -6.545755,0.40863 -9.701709,-3.34201 -1.849447,-2.19794 -3.362631,-4.7781 -3.362631,-5.73369 0,-2.25706 -8.313696,-10.57076 -10.57076,-10.57076 -0.955585,0 -3.535744,-1.51318 -5.733686,-3.36263 -3.750639,-3.155954 -3.956048,-3.752247 -3.342009,-9.70171 0.730595,-7.078784 -1.067831,-13.646169 -5.162327,-18.851476 -3.426094,-4.355574 -3.426094,-9.312791 0,-13.668365 4.094496,-5.205308 5.892922,-11.772693 5.162327,-18.851476 -0.614039,-5.949463 -0.40863,-6.545757 3.342009,-9.70171 2.197942,-1.849448 4.778101,-3.362632 5.733686,-3.362632 2.257064,0 10.57076,-8.313696 10.57076,-10.57076 0,-0.955585 1.513184,-3.535743 3.362631,-5.733686 3.155954,-3.7506386 3.752249,-3.9560473 9.701709,-3.3420086 7.07878,0.7305949 13.64617,-1.0678311 18.85148,-5.162327 4.35557,-3.42609437 9.31279,-3.42609437 13.66836,0 5.20531,4.0944959 11.77269,5.8929219 18.85148,5.162327 5.94946,-0.6140387 6.54575,-0.40863 9.70171,3.3420086 1.84945,2.197943 3.36263,4.778101 3.36263,5.733686 0,2.257064 8.3137,10.57076 10.57076,10.57076 0.95558,0 3.53574,1.513184 5.73369,3.362632 3.75064,3.155953 3.95605,3.752247 3.342,9.70171 -0.73059,7.078783 1.06784,13.646168 5.16234,18.851476 3.42608,4.355574 3.42608,9.312791 0,13.668365 -4.0945,5.205307 -5.89293,11.772692 -5.16233,18.851476 0.61404,5.949463 0.40863,6.545756 -3.34201,9.70171 -2.19795,1.84945 -4.77811,3.36263 -5.73369,3.36263 -0.95559,0 -3.72493,1.9875 -6.15409,4.41667 -2.42917,2.42917 -4.41667,5.19851 -4.41667,6.15409 0,0.95559 -1.51318,3.53575 -3.36263,5.73369 -3.15596,3.75064 -3.75225,3.95605 -9.70171,3.34201 -7.07879,-0.7306 -13.64617,1.06783 -18.85148,5.16233 -1.88173,1.48016 -4.95711,2.69121 -6.83418,2.69121 -1.87707,0 -4.95245,-1.21105 -6.83418,-2.69121 z m 15.12308,-2.56071 c 5.00567,-3.59481 6.48887,-4.0081 14.57934,-4.06251 4.95372,-0.0333 9.69387,-0.50574 10.53367,-1.04984 0.8398,-0.5441 2.59152,-3.3566 3.89271,-6.25 2.81512,-6.25987 6.71137,-10.07569 12.94946,-12.68213 2.52173,-1.05365 5.04531,-2.62737 5.60794,-3.49716 0.56264,-0.869791 1.05024,-5.63448 1.08355,-10.588196 0.0544,-8.090471 0.4677,-9.573674 4.0625,-14.579346 5.0121,-6.979237 5.0121,-9.598557 0,-16.577793 -3.5948,-5.005672 -4.00809,-6.488875 -4.0625,-14.579346 -0.0333,-4.953716 -0.50574,-9.693866 -1.04985,-10.533668 -0.5441,-0.8398 -3.3566,-2.591517 -6.25,-3.892705 -6.25987,-2.815121 -10.07568,-6.711372 -12.68212,-12.949467 -1.05365,-2.521731 -2.62737,-5.045304 -3.49716,-5.607941 -0.86979,-0.562637 -5.63448,-1.050233 -10.5882,-1.083545 -8.09047,-0.05441 -9.57367,-0.4676981 -14.57934,-4.0625004 -6.97924,-5.0121083 -9.59856,-5.0121083 -16.5778,0 -5.00567,3.5948023 -6.48887,4.0080934 -14.57934,4.0625004 -4.95372,0.03331 -9.718408,0.520908 -10.588199,1.083545 -0.869792,0.562637 -2.443514,3.08621 -3.49716,5.607941 -2.606442,6.238095 -6.422256,10.134346 -12.682126,12.949467 -2.893399,1.301188 -5.705899,3.052905 -6.25,3.892705 -0.544101,0.839802 -1.016531,5.579952 -1.049844,10.533668 -0.05441,8.090471 -0.467698,9.573674 -4.0625,14.579346 -5.012108,6.979236 -5.012108,9.598556 0,16.577793 3.594802,5.005672 4.008093,6.488875 4.0625,14.579346 0.03331,4.953716 0.520908,9.718405 1.083545,10.588196 0.562637,0.86979 3.08621,2.44351 5.607942,3.49716 6.238094,2.60644 10.134346,6.42226 12.949467,12.68213 1.301187,2.8934 3.052905,5.7059 3.892705,6.25 0.839801,0.5441 5.58733,1.01655 10.55006,1.04988 8.1183,0.0545 9.55985,0.45696 14.375,4.01298 6.78833,5.01321 9.84132,5.02222 16.76575,0.0495 z"
       id="path3346"
       inkscape:connector-curvature="0" />
    <path
       style="fill:#dacec9"
       d="m 125.30519,131.08962 c -5.7408,-4.51571 -11.86792,-6.40722 -17.84926,-5.51026 -6.87194,1.03051 -11.168596,-1.44478 -13.871259,-7.9912 -2.604505,-6.30867 -5.136828,-8.90743 -11.253067,-11.54832 -7.191451,-3.10514 -9.652271,-7.164099 -8.599522,-14.184332 0.896957,-5.98134 -0.994553,-12.108462 -5.510264,-17.849258 -3.228838,-4.104801 -3.228838,-9.161936 0,-13.266737 4.515711,-5.740797 6.407221,-11.867918 5.510264,-17.849258 -1.052749,-7.020234 1.408071,-11.079192 8.599522,-14.184335 6.116238,-2.640886 8.648562,-5.23965 11.253067,-11.548312 2.702663,-6.546422 6.999319,-9.0217164 13.871259,-7.9912047 5.98134,0.8969577 12.10846,-0.9945529 17.84926,-5.5102642 4.1048,-3.22883733 9.16194,-3.22883733 13.26674,0 5.74079,4.5157113 11.86792,6.4072219 17.84926,5.5102642 6.87194,-1.0305117 11.1686,1.4447827 13.87126,7.9912047 2.6045,6.308662 5.13683,8.907426 11.25307,11.548312 7.19145,3.105143 9.65226,7.164101 8.59952,14.184335 -0.89696,5.98134 0.99454,12.108461 5.51026,17.849258 3.22883,4.104801 3.22883,9.161936 0,13.266737 -4.51572,5.740796 -6.40722,11.867918 -5.51026,17.849258 1.05274,7.020233 -1.40807,11.079192 -8.59952,14.184332 -6.11624,2.64089 -8.64857,5.23965 -11.25307,11.54832 -2.70266,6.54642 -6.99932,9.02171 -13.87126,7.9912 -5.98134,-0.89696 -12.10847,0.99455 -17.84926,5.51026 -4.1048,3.22884 -9.16194,3.22884 -13.26674,0 z m 13.72496,-1.66065 c 4.9082,-4.08935 11.639,-6.03862 17.57413,-5.08955 6.44065,1.0299 10.03257,-0.92123 12.43492,-6.75465 2.58796,-6.28414 6.31798,-10.09817 12.49894,-12.78043 6.47059,-2.80795 8.4193,-6.184749 7.36695,-12.76574 -0.94906,-5.935131 1.00021,-12.665929 5.08956,-17.574125 3.7485,-4.499102 3.7485,-9.684085 0,-14.183187 -4.08935,-4.908197 -6.03862,-11.638994 -5.08956,-17.574125 1.05235,-6.580992 -0.89636,-9.957787 -7.36695,-12.765737 -6.18096,-2.682258 -9.91098,-6.496291 -12.49894,-12.780431 -2.40235,-5.833418 -5.99427,-7.7845501 -12.43492,-6.754648 -5.93513,0.949066 -12.66593,-1.0002051 -17.57413,-5.0895499 -1.94337,-1.6191536 -5.13459,-2.9439157 -7.09159,-2.9439157 -1.957,0 -5.14822,1.3247621 -7.09159,2.9439157 -4.9082,4.0893448 -11.639,6.0386159 -17.57413,5.0895499 -6.44065,-1.0299021 -10.032573,0.92123 -12.434916,6.754648 -2.587962,6.28414 -6.317989,10.098173 -12.49894,12.780431 -6.470592,2.80795 -8.419302,6.184745 -7.366959,12.765737 0.949066,5.935131 -1.000205,12.665928 -5.089549,17.574125 -3.748502,4.499102 -3.748502,9.684085 0,14.183187 4.089344,4.908196 6.038615,11.638994 5.089549,17.574125 -1.052343,6.580991 0.896367,9.95779 7.366959,12.76574 6.180951,2.68226 9.910978,6.49629 12.49894,12.78043 2.402343,5.83342 5.994266,7.78455 12.434916,6.75465 5.93513,-0.94907 12.66593,1.0002 17.57413,5.08955 1.94337,1.61915 5.13459,2.94391 7.09159,2.94391 1.957,0 5.14822,-1.32476 7.09159,-2.94391 z"
       id="path3344"
       inkscape:connector-curvature="0" />
    <path
       style="fill:#d1c2bb"
       d="m 130.37606,132.79503 c 0.85937,-0.34676 2.26562,-0.34676 3.125,0 0.85937,0.34676 0.15625,0.63049 -1.5625,0.63049 -1.71875,0 -2.42188,-0.28373 -1.5625,-0.63049 z m -6.68126,-3.23465 -2.38124,-2.8125 3.125,2.48668 c 1.71875,1.36767 3.35937,2.6333 3.64583,2.8125 0.28646,0.1792 -0.0482,0.32582 -0.74376,0.32582 -0.69553,0 -2.33616,-1.26562 -3.64583,-2.8125 z m 12.09793,2.48668 c 0.28645,-0.1792 1.92708,-1.44483 3.64583,-2.8125 l 3.125,-2.48668 -2.38124,2.8125 c -1.30967,1.54688 -2.9503,2.8125 -3.64583,2.8125 -0.69553,0 -1.03022,-0.14662 -0.74376,-0.32582 z m -33.51788,-6.79042 c 1.21621,-0.31693 2.90371,-0.29608 3.75,0.0463 0.84629,0.3424 -0.14879,0.60171 -2.21129,0.57624 -2.0625,-0.0255 -2.75492,-0.30563 -1.53871,-0.62256 z m 56.25,0 c 1.21621,-0.31693 2.90371,-0.29608 3.75,0.0463 0.84629,0.3424 -0.14879,0.60171 -2.21129,0.57624 -2.0625,-0.0255 -2.75492,-0.30563 -1.53871,-0.62256 z m -62.218225,-2.89142 c -1.248173,-1.37922 -2.038479,-2.73037 -1.756235,-3.00258 0.282244,-0.2722 1.523805,0.85625 2.759026,2.50767 2.727984,3.64715 2.121033,3.94669 -1.002791,0.49491 z M 166.446,122.18281 c 1.30216,-1.82329 2.61756,-3.07329 2.92311,-2.77778 0.30556,0.29551 -0.75984,1.7873 -2.36756,3.31507 l -2.92311,2.77778 2.36756,-3.31507 z m -74.7703,-8.61454 c -1.150006,-2.00376 -3.951944,-4.77785 -6.22653,-6.16463 -2.274585,-1.38678 -3.475643,-2.52352 -2.669016,-2.52609 1.962817,-0.006 8.883535,5.89608 10.537858,8.98722 2.125975,3.97242 0.65533,3.70692 -1.642312,-0.2965 z m 77.76753,2.72005 c -0.003,-0.94025 2.17915,-3.89338 4.84827,-6.5625 2.66912,-2.66911 5.62224,-4.85084 6.5625,-4.84827 0.94026,0.003 -0.12371,1.12243 -2.36437,2.48858 -2.24065,1.36615 -5.19168,4.31717 -6.55782,6.55783 -1.36615,2.24066 -2.48601,3.30462 -2.48858,2.36436 z m -93.248436,-14.22794 -2.381234,-2.812499 3.125,2.486679 c 1.71875,1.36767 3.359375,2.6333 3.645834,2.8125 0.286457,0.1792 -0.04824,0.32582 -0.743767,0.32582 -0.695528,0 -2.336154,-1.26562 -3.645833,-2.8125 z m 107.097936,2.48668 c 0.28645,-0.1792 1.92708,-1.44483 3.64583,-2.8125 l 3.125,-2.486679 -2.38124,2.812499 c -1.30967,1.54688 -2.9503,2.8125 -3.64583,2.8125 -0.69553,0 -1.03022,-0.14662 -0.74376,-0.32582 z M 73.432246,95.497881 c 0.02548,-2.0625 0.305623,-2.75492 0.622552,-1.53871 0.31693,1.216209 0.296087,2.903709 -0.04632,3.75 -0.342404,0.84629 -0.60171,-0.14879 -0.576235,-2.21129 z m 116.250004,0 c 0.0255,-2.0625 0.30562,-2.75492 0.62255,-1.53871 0.31693,1.216209 0.29608,2.903709 -0.0463,3.75 -0.34241,0.84629 -0.60172,-0.14879 -0.57624,-2.21129 z M 68.806625,74.865218 c -1.248173,-1.379215 -2.038478,-2.730373 -1.756235,-3.002574 0.282244,-0.272201 1.523805,0.856247 2.759026,2.507664 2.727982,3.647147 2.121032,3.946696 -1.002791,0.49491 z M 193.946,74.682808 c 1.30216,-1.823292 2.61756,-3.073292 2.92311,-2.777779 0.30556,0.295514 -0.75984,1.787297 -2.36755,3.315075 l -2.92312,2.777777 2.36756,-3.315073 z M 65.885928,67.372881 c 0,-1.71875 0.283718,-2.421875 0.630483,-1.5625 0.346765,0.859375 0.346765,2.265625 0,3.125 -0.346765,0.859375 -0.630483,0.15625 -0.630483,-1.5625 z m 131.249992,0 c 0,-1.71875 0.28373,-2.421875 0.63049,-1.5625 0.34676,0.859375 0.34676,2.265625 0,3.125 -0.34676,0.859375 -0.63049,0.15625 -0.63049,-1.5625 z M 66.93856,62.774949 c 0,-0.695529 1.265625,-2.336154 2.8125,-3.645833 l 2.8125,-2.381235 -2.486679,3.125 c -1.367674,1.71875 -2.633299,3.359375 -2.8125,3.645834 -0.179202,0.286458 -0.325821,-0.04824 -0.325821,-0.743766 z m 127.00744,-2.711994 -2.36756,-3.315074 2.92312,2.777778 c 1.60771,1.527777 2.67311,3.019561 2.36755,3.315075 -0.30555,0.295512 -1.62095,-0.954488 -2.92311,-2.777779 z M 73.432246,39.247881 c 0.02548,-2.0625 0.305623,-2.75492 0.622552,-1.53871 0.31693,1.216209 0.296087,2.903709 -0.04632,3.75 -0.342404,0.84629 -0.60171,-0.14879 -0.576235,-2.21129 z m 116.250004,0 c 0.0255,-2.0625 0.30562,-2.75492 0.62255,-1.53871 0.31693,1.216209 0.29608,2.903709 -0.0463,3.75 -0.34241,0.84629 -0.60172,-0.14879 -0.57624,-2.21129 z M 76.591338,32.309886 c 1.527777,-1.607713 3.019561,-2.673116 3.315074,-2.36756 0.295513,0.305555 -0.954487,1.620958 -2.777778,2.923115 l -3.315074,2.36756 2.777778,-2.923115 z m 109.271242,0.02141 c -1.62304,-1.352131 -2.41335,-2.458418 -1.75624,-2.458418 0.65711,0 2.21286,1.125 3.45722,2.5 2.8586,3.158718 2.11882,3.140632 -1.70098,-0.04159 z M 85.387485,27.379634 c 2.240659,-1.366146 5.191681,-4.317169 6.557827,-6.557828 1.366147,-2.240658 2.486005,-3.304623 2.488575,-2.364366 0.0061,2.222346 -9.188422,11.416843 -11.410768,11.410769 -0.940258,-0.0026 0.123712,-1.122429 2.364366,-2.488575 z M 174.2915,25.01994 c -2.66912,-2.669117 -4.85084,-5.622242 -4.84827,-6.5625 0.003,-0.940257 1.12243,0.123713 2.48858,2.364366 1.36614,2.240659 4.31717,5.191682 6.55783,6.557828 2.24065,1.366146 3.30462,2.486005 2.36436,2.488575 -0.94026,0.0026 -3.89338,-2.179151 -6.5625,-4.848269 z M 94.43856,15.274949 c 0,-0.695529 1.265625,-2.336154 2.8125,-3.645833 l 2.8125,-2.3812346 -2.486679,3.1249996 c -1.367674,1.71875 -2.633299,3.359375 -2.8125,3.645834 -0.179201,0.286458 -0.325821,-0.04824 -0.325821,-0.743766 z m 72.00744,-2.711993 -2.36756,-3.3150746 2.92311,2.7777776 c 1.60772,1.527778 2.67312,3.019561 2.36756,3.315075 -0.30555,0.295512 -1.62095,-0.954488 -2.92311,-2.777778 z M 102.27485,9.006643 c 1.21621,-0.3169292 2.90371,-0.2960863 3.75,0.046317 0.84629,0.3424039 -0.14879,0.6017097 -2.21129,0.576235 -2.0625,-0.025475 -2.75492,-0.3056232 -1.53871,-0.6225525 z m 56.25,0 c 1.21621,-0.3169292 2.90371,-0.2960863 3.75,0.046317 0.84629,0.3424039 -0.14879,0.6017097 -2.21129,0.576235 -2.0625,-0.025475 -2.75492,-0.3056232 -1.53871,-0.6225525 z M 124.09134,4.8098859 c 1.52777,-1.6077136 3.01956,-2.6731156 3.31507,-2.36756 0.29551,0.3055555 -0.95449,1.6209575 -2.77778,2.9231155 l -3.31507,2.3675601 2.77778,-2.9231156 z m 14.27124,0.021409 c -1.62304,-1.3521272 -2.41335,-2.4584132 -1.75624,-2.4584132 0.65711,0 2.21286,1.125 3.45722,2.5 2.8586,3.1587171 2.11882,3.1406306 -1.70098,-0.041587 z m -7.98652,-3.2862641 c 0.85937,-0.3467653 2.26562,-0.3467653 3.125,0 0.85937,0.3467654 0.15625,0.6304825 -1.5625,0.6304825 -1.71875,0 -2.42188,-0.2837171 -1.5625,-0.6304825 z"
       id="path3342"
       inkscape:connector-curvature="0" />
    <path
       style="fill:#c9b7af"
       d="m 130.37606,132.79503 c 0.85937,-0.34676 2.26562,-0.34676 3.125,0 0.85937,0.34676 0.15625,0.63049 -1.5625,0.63049 -1.71875,0 -2.42188,-0.28373 -1.5625,-0.63049 z m -7.34694,-3.85965 c -1.55484,-1.98257 -1.51063,-2.02679 0.47194,-0.47195 1.20312,0.94356 2.1875,1.92794 2.1875,2.1875 0,1.0288 -1.02648,0.36664 -2.65944,-1.71555 z m 15.15944,1.71555 c 0,-0.25956 0.98437,-1.24394 2.1875,-2.1875 1.98257,-1.55484 2.02678,-1.51062 0.47194,0.47195 -1.63296,2.08219 -2.65944,2.74435 -2.65944,1.71555 z m -35.3125,-5.3559 c 0.85937,-0.34676 2.26562,-0.34676 3.125,0 0.85937,0.34677 0.15625,0.63048 -1.5625,0.63048 -1.71875,0 -2.42188,-0.28371 -1.5625,-0.63048 z m 55,0 c 0.85937,-0.34676 2.26562,-0.34676 3.125,0 0.85937,0.34677 0.15625,0.63048 -1.5625,0.63048 -1.71875,0 -2.42188,-0.28371 -1.5625,-0.63048 z m -61.096944,-2.60965 c -1.554839,-1.98257 -1.510626,-2.02678 0.471944,-0.47194 2.082185,1.63296 2.744349,2.65944 1.715556,2.65944 -0.25957,0 -1.243945,-0.98437 -2.1875,-2.1875 z m 67.659444,1.71556 c 0,-0.25957 0.98437,-1.24395 2.1875,-2.1875 1.98257,-1.55484 2.02678,-1.51063 0.47194,0.47194 -1.63296,2.08219 -2.65944,2.74435 -2.65944,1.71556 z m -75.743765,-14.84056 -2.381235,-2.8125 2.8125,2.38124 c 1.546875,1.30968 2.8125,2.5753 2.8125,2.8125 0,1.00031 -1.005993,0.26182 -3.243765,-2.38124 z m 85.118765,0.3125 c 1.24436,-1.375 2.54372,-2.5 2.88747,-2.5 0.34375,0 -0.39311,1.125 -1.63747,2.5 -1.24436,1.375 -2.54372,2.5 -2.88747,2.5 -0.34375,0 0.39311,-1.125 1.63747,-2.5 z m -98.284444,-8.4375 c -1.554838,-1.982569 -1.510626,-2.026781 0.471944,-0.47194 1.203125,0.94355 2.1875,1.92793 2.1875,2.1875 0,1.02879 -1.026482,0.36663 -2.659444,-1.71556 z m 110.159444,1.71556 c 0,-0.25957 0.98437,-1.24395 2.1875,-2.1875 1.98257,-1.554841 2.02678,-1.510629 0.47194,0.47194 -1.63296,2.08219 -2.65944,2.74435 -2.65944,1.71556 z M 73.385928,94.872881 c 0,-1.71875 0.283718,-2.421875 0.630483,-1.5625 0.346765,0.859375 0.346765,2.265625 0,3.125 -0.346765,0.859375 -0.630483,0.15625 -0.630483,-1.5625 z m 116.250002,0 c 0,-1.71875 0.28371,-2.421875 0.63048,-1.5625 0.34677,0.859375 0.34677,2.265625 0,3.125 -0.34677,0.859375 -0.63048,0.15625 -0.63048,-1.5625 z M 69.279116,75.185381 c -1.554838,-1.98257 -1.510626,-2.026782 0.471944,-0.471943 1.203125,0.943555 2.1875,1.92793 2.1875,2.1875 0,1.028792 -1.026482,0.366628 -2.659444,-1.715557 z m 122.659444,1.715557 c 0,-0.25957 0.98437,-1.243945 2.1875,-2.1875 1.98257,-1.554839 2.02679,-1.510627 0.47195,0.471943 -1.63296,2.082185 -2.65945,2.744349 -2.65945,1.715557 z M 65.885928,67.372881 c 0,-1.71875 0.283718,-2.421875 0.630483,-1.5625 0.346765,0.859375 0.346765,2.265625 0,3.125 -0.346765,0.859375 -0.630483,0.15625 -0.630483,-1.5625 z m 131.249992,0 c 0,-1.71875 0.28373,-2.421875 0.63049,-1.5625 0.34676,0.859375 0.34676,2.265625 0,3.125 -0.34676,0.859375 -0.63049,0.15625 -0.63049,-1.5625 z M 68.18856,60.650938 c 0,-0.25957 0.984375,-1.243945 2.1875,-2.1875 1.982569,-1.554839 2.026782,-1.510627 0.471944,0.471943 -1.632962,2.082185 -2.659444,2.744349 -2.659444,1.715557 z m 124.84055,-1.715557 c -1.55484,-1.98257 -1.51063,-2.026782 0.47195,-0.471943 2.08219,1.632961 2.74435,2.659443 1.71555,2.659443 -0.25956,0 -1.24394,-0.984375 -2.1875,-2.1875 z M 73.385928,39.872881 c 0,-1.71875 0.283718,-2.421875 0.630483,-1.5625 0.346765,0.859375 0.346765,2.265625 0,3.125 -0.346765,0.859375 -0.630483,0.15625 -0.630483,-1.5625 z m 116.250002,0 c 0,-1.71875 0.28371,-2.421875 0.63048,-1.5625 0.34677,0.859375 0.34677,2.265625 0,3.125 -0.34677,0.859375 -0.63048,0.15625 -0.63048,-1.5625 z M 74.43856,34.400938 c 0,-0.25957 0.984375,-1.243945 2.1875,-2.1875 1.98257,-1.554839 2.026782,-1.510627 0.471944,0.471943 -1.632962,2.082185 -2.659444,2.744349 -2.659444,1.715557 z m 112.34056,-1.715557 c -1.55484,-1.98257 -1.51063,-2.026782 0.47194,-0.471943 2.08218,1.632961 2.74435,2.659443 1.71556,2.659443 -0.25957,0 -1.24395,-0.984375 -2.1875,-2.1875 z m -97.96556,-7.8125 c 1.244358,-1.375 2.543719,-2.5 2.887469,-2.5 0.34375,0 -0.393111,1.125 -1.637469,2.5 -1.244358,1.375 -2.543719,2.5 -2.887469,2.5 -0.34375,0 0.393111,-1.125 1.637469,-2.5 z m 84.88123,-0.3125 -2.38123,-2.8125 2.8125,2.381235 c 2.64306,2.237773 3.38155,3.243765 2.38123,3.243765 -0.23719,0 -1.50282,-1.265625 -2.8125,-2.8125 z M 95.68856,13.150937 c 0,-0.259569 0.984375,-1.243944 2.1875,-2.1875 1.98257,-1.554838 2.026782,-1.5106251 0.471944,0.471944 -1.632962,2.082185 -2.659444,2.744349 -2.659444,1.715556 z m 69.84056,-1.715556 c -1.55484,-1.9825691 -1.51063,-2.026782 0.47194,-0.471944 1.20312,0.943556 2.1875,1.927931 2.1875,2.1875 0,1.028793 -1.02648,0.366629 -2.65944,-1.715556 z M 102.87606,9.0450305 c 0.85937,-0.3467653 2.26562,-0.3467653 3.125,0 0.85937,0.3467654 0.15625,0.6304825 -1.5625,0.6304825 -1.71875,0 -2.42188,-0.2837171 -1.5625,-0.6304825 z m 55,0 c 0.85937,-0.3467653 2.26562,-0.3467653 3.125,0 0.85937,0.3467654 0.15625,0.6304825 -1.5625,0.6304825 -1.71875,0 -2.42188,-0.2837171 -1.5625,-0.6304825 z m -35.9375,-2.1440932 c 0,-0.2595693 0.98437,-1.2439443 2.1875,-2.1875 1.98257,-1.5548383 2.02678,-1.5106254 0.47194,0.4719441 -1.63296,2.082185 -2.65944,2.7443486 -2.65944,1.7155559 z m 17.34056,-1.7155559 c -1.55484,-1.9825695 -1.51063,-2.0267824 0.47194,-0.4719441 1.20312,0.9435557 2.1875,1.9279307 2.1875,2.1875 0,1.0287927 -1.02648,0.3666291 -2.65944,-1.7155559 z m -8.90306,-3.6403509 c 0.85937,-0.3467653 2.26562,-0.3467653 3.125,0 0.85937,0.3467654 0.15625,0.6304825 -1.5625,0.6304825 -1.71875,0 -2.42188,-0.2837171 -1.5625,-0.6304825 z"
       id="path3340"
       inkscape:connector-curvature="0" />
  </g>
</svg>
